<?xml version="1.0" encoding="UTF-8" standalone="no"?>
<!-- Created with Inkscape (http://www.inkscape.org/) -->

<svg
   xmlns:dc="http://purl.org/dc/elements/1.1/"
   xmlns:cc="http://creativecommons.org/ns#"
   xmlns:rdf="http://www.w3.org/1999/02/22-rdf-syntax-ns#"
   xmlns:svg="http://www.w3.org/2000/svg"
   xmlns="http://www.w3.org/2000/svg"
   xmlns:sodipodi="http://sodipodi.sourceforge.net/DTD/sodipodi-0.dtd"
   xmlns:inkscape="http://www.inkscape.org/namespaces/inkscape"
   width="394.68399"
   height="64.047997"
   viewBox="0 0 104.4268 16.946033"
   version="1.1"
   id="svg3946"
   inkscape:version="0.92.4 (5da689c313, 2019-01-14)"
   sodipodi:docname="logo.svg">
  <defs
     id="defs3940">
    <clipPath
       clipPathUnits="userSpaceOnUse"
       id="clipPath2328">
      <rect
         rx="4.0349584"
         style="opacity:1;fill:#3d76ca;fill-opacity:1;fill-rule:nonzero;stroke:none;stroke-width:52.91666412;stroke-linecap:round;stroke-miterlimit:4;stroke-dasharray:none;stroke-dashoffset:0;stroke-opacity:0.99607843;paint-order:normal"
         id="rect2330"
         width="95.549629"
         height="148.76715"
         x="-1030.1995"
         y="456.05017"
         ry="4.0349584" />
    </clipPath>
    <clipPath
       clipPathUnits="userSpaceOnUse"
       id="clipPath2324">
      <rect
         rx="4.0349584"
         style="opacity:1;fill:#3d76ca;fill-opacity:1;fill-rule:nonzero;stroke:none;stroke-width:53.78142166;stroke-linecap:round;stroke-miterlimit:4;stroke-dasharray:none;stroke-dashoffset:0;stroke-opacity:0.99607843;paint-order:normal"
         id="rect2326"
         width="76.079025"
         height="272.93909"
         x="-820.27081"
         y="836.70294"
         ry="4.0349584"
         transform="matrix(0.45970085,0.88807383,-0.74456065,0.66755482,0,0)" />
    </clipPath>
    <clipPath
       clipPathUnits="userSpaceOnUse"
       id="clipPath2320">
      <rect
         rx="4.0349584"
         style="opacity:1;fill:#3d76ca;fill-opacity:1;fill-rule:nonzero;stroke:none;stroke-width:53.78142166;stroke-linecap:round;stroke-miterlimit:4;stroke-dasharray:none;stroke-dashoffset:0;stroke-opacity:0.99607843;paint-order:normal"
         id="rect2322"
         width="76.079025"
         height="272.93909"
         x="-820.27081"
         y="836.70294"
         ry="4.0349584"
         transform="matrix(0.45970085,0.88807383,-0.74456065,0.66755482,0,0)" />
    </clipPath>
    <clipPath
       clipPathUnits="userSpaceOnUse"
       id="clipPath2316">
      <rect
         rx="4.0349584"
         style="opacity:1;fill:#3d76ca;fill-opacity:1;fill-rule:nonzero;stroke:none;stroke-width:53.78142166;stroke-linecap:round;stroke-miterlimit:4;stroke-dasharray:none;stroke-dashoffset:0;stroke-opacity:0.99607843;paint-order:normal"
         id="rect2318"
         width="76.079025"
         height="272.93909"
         x="-820.27081"
         y="836.70294"
         ry="4.0349584"
         transform="matrix(0.45970085,0.88807383,-0.74456065,0.66755482,0,0)" />
    </clipPath>
    <clipPath
       clipPathUnits="userSpaceOnUse"
       id="clipPath2312">
      <rect
         rx="4.0349584"
         style="opacity:1;fill:#3d76ca;fill-opacity:1;fill-rule:nonzero;stroke:none;stroke-width:53.78142166;stroke-linecap:round;stroke-miterlimit:4;stroke-dasharray:none;stroke-dashoffset:0;stroke-opacity:0.99607843;paint-order:normal"
         id="rect2314"
         width="76.079025"
         height="272.93909"
         x="-820.27081"
         y="836.70294"
         ry="4.0349584"
         transform="matrix(0.45970085,0.88807383,-0.74456065,0.66755482,0,0)" />
    </clipPath>
    <clipPath
       clipPathUnits="userSpaceOnUse"
       id="clipPath2328-3">
      <rect
         rx="4.0349584"
         style="opacity:1;fill:#3d76ca;fill-opacity:1;fill-rule:nonzero;stroke:none;stroke-width:52.91666412;stroke-linecap:round;stroke-miterlimit:4;stroke-dasharray:none;stroke-dashoffset:0;stroke-opacity:0.99607843;paint-order:normal"
         id="rect2330-6"
         width="95.549629"
         height="148.76715"
         x="-1030.1995"
         y="456.05017"
         ry="4.0349584" />
    </clipPath>
    <clipPath
       clipPathUnits="userSpaceOnUse"
       id="clipPath2324-7">
      <rect
         rx="4.0349584"
         style="opacity:1;fill:#3d76ca;fill-opacity:1;fill-rule:nonzero;stroke:none;stroke-width:53.78142166;stroke-linecap:round;stroke-miterlimit:4;stroke-dasharray:none;stroke-dashoffset:0;stroke-opacity:0.99607843;paint-order:normal"
         id="rect2326-5"
         width="76.079025"
         height="272.93909"
         x="-820.27081"
         y="836.70294"
         ry="4.0349584"
         transform="matrix(0.45970085,0.88807383,-0.74456065,0.66755482,0,0)" />
    </clipPath>
    <clipPath
       clipPathUnits="userSpaceOnUse"
       id="clipPath2320-3">
      <rect
         rx="4.0349584"
         style="opacity:1;fill:#3d76ca;fill-opacity:1;fill-rule:nonzero;stroke:none;stroke-width:53.78142166;stroke-linecap:round;stroke-miterlimit:4;stroke-dasharray:none;stroke-dashoffset:0;stroke-opacity:0.99607843;paint-order:normal"
         id="rect2322-5"
         width="76.079025"
         height="272.93909"
         x="-820.27081"
         y="836.70294"
         ry="4.0349584"
         transform="matrix(0.45970085,0.88807383,-0.74456065,0.66755482,0,0)" />
    </clipPath>
    <clipPath
       clipPathUnits="userSpaceOnUse"
       id="clipPath2316-6">
      <rect
         rx="4.0349584"
         style="opacity:1;fill:#3d76ca;fill-opacity:1;fill-rule:nonzero;stroke:none;stroke-width:53.78142166;stroke-linecap:round;stroke-miterlimit:4;stroke-dasharray:none;stroke-dashoffset:0;stroke-opacity:0.99607843;paint-order:normal"
         id="rect2318-2"
         width="76.079025"
         height="272.93909"
         x="-820.27081"
         y="836.70294"
         ry="4.0349584"
         transform="matrix(0.45970085,0.88807383,-0.74456065,0.66755482,0,0)" />
    </clipPath>
    <clipPath
       clipPathUnits="userSpaceOnUse"
       id="clipPath2312-9">
      <rect
         rx="4.0349584"
         style="opacity:1;fill:#3d76ca;fill-opacity:1;fill-rule:nonzero;stroke:none;stroke-width:53.78142166;stroke-linecap:round;stroke-miterlimit:4;stroke-dasharray:none;stroke-dashoffset:0;stroke-opacity:0.99607843;paint-order:normal"
         id="rect2314-1"
         width="76.079025"
         height="272.93909"
         x="-820.27081"
         y="836.70294"
         ry="4.0349584"
         transform="matrix(0.45970085,0.88807383,-0.74456065,0.66755482,0,0)" />
    </clipPath>
  </defs>
  <sodipodi:namedview
     id="base"
     pagecolor="#4d4d4d"
     bordercolor="#666666"
     borderopacity="1.0"
     inkscape:pageopacity="0"
     inkscape:pageshadow="2"
     inkscape:zoom="0.49497475"
     inkscape:cx="179.95929"
     inkscape:cy="262.05765"
     inkscape:document-units="px"
     inkscape:current-layer="layer1"
     showgrid="false"
     units="px"
     inkscape:pagecheckerboard="true"
     borderlayer="true"
     inkscape:showpageshadow="false"
     inkscape:window-width="960"
     inkscape:window-height="1016"
     inkscape:window-x="960"
     inkscape:window-y="27"
     inkscape:window-maximized="0" />
  <metadata
     id="metadata3943">
    <rdf:RDF>
      <cc:Work
         rdf:about="">
        <dc:format>image/svg+xml</dc:format>
        <dc:type
           rdf:resource="http://purl.org/dc/dcmitype/StillImage" />
        <dc:title></dc:title>
      </cc:Work>
    </rdf:RDF>
  </metadata>
  <g
     inkscape:label="Layer 1"
     inkscape:groupmode="layer"
     id="layer1"
     transform="translate(0,-280.05392)">
    <g
       inkscape:export-ydpi="96"
       inkscape:export-xdpi="96"
       id="g3761"
       transform="matrix(2.1283765,0,0,2.1283765,-536.77319,321.08879)"
       style="display:inline;opacity:0.98999999;fill:#224579;fill-opacity:1;stroke-width:0.46984166;enable-background:new">
      <g
         style="fill:#224579;fill-opacity:1;stroke-width:1.26589108"
         id="g3742"
         transform="matrix(0.37115487,0,0,0.37115487,172.3427,-4.7926337)">
        <path
           style="opacity:1;fill:#224579;fill-opacity:1;stroke:none;stroke-width:0.6698674;stroke-linecap:square;stroke-miterlimit:4;stroke-dasharray:none;stroke-dashoffset:0;stroke-opacity:1;paint-order:normal"
           d="m 227.90522,-36.624903 -4.88497,4.248319 -4.88085,4.244701 h 2.21175 v 8.017599 c 0,1.403466 1.16739,2.533178 2.61743,2.533178 h 9.8738 c 1.45003,0 2.61742,-1.129712 2.61742,-2.533178 v -8.017599 h 2.21174 l -4.88135,-4.244701 z m -0.0196,0.795816 3.99097,3.539318 3.98685,3.535185 h -0.9183 v 8.308537 c 0,1.285201 -1.08785,2.319755 -2.43912,2.319755 h -9.20152 c -1.35127,0 -2.43912,-1.034554 -2.43912,-2.319755 v -8.308537 h -0.95756 l 3.98735,-3.535185 z"
           id="path3730"
           inkscape:connector-curvature="0" />
        <path
           id="path3732"
           d="m 227.90534,-39.032924 -6.97249,6.063636 -5.77814,5.024297 h 1.49148 l 4.28666,-3.727324 6.97249,-6.062658 6.97166,6.062658 4.28666,3.727324 h 1.49148 l -5.77814,-5.024297 z"
           style="opacity:1;fill:#224579;fill-opacity:1;stroke:none;stroke-width:0.66986722;stroke-linecap:square;stroke-miterlimit:4;stroke-dasharray:none;stroke-dashoffset:0;stroke-opacity:1;paint-order:normal"
           inkscape:connector-curvature="0" />
        <path
           inkscape:connector-curvature="0"
           id="path3734"
           d="m 226.58118,-30.523356 c 0,0 -3.52343,4.854176 -3.52343,6.800125 0,1.945946 1.57747,3.523415 3.52343,3.523415 0.89736,0 1.71392,-0.337866 2.33602,-0.890237 -2.07967,-0.169317 -3.71537,-1.907679 -3.71537,-4.030978 0,-1.086209 0.9566,-2.959264 1.9392,-4.600069 -0.33475,-0.492335 -0.55985,-0.802256 -0.55985,-0.802256 z"
           style="opacity:1;fill:#224579;fill-opacity:1;stroke:none;stroke-width:0.6698674;stroke-linecap:square;stroke-miterlimit:4;stroke-dasharray:none;stroke-dashoffset:0;stroke-opacity:1;paint-order:normal" />
        <path
           inkscape:connector-curvature="0"
           id="path3736"
           d="m 226.68269,-29.350115 c 0,0 -2.68548,3.868255 -2.68548,5.418935 0,1.550681 1.20223,2.807905 2.68548,2.807905 0.38324,0 0.74741,-0.08564 1.07727,-0.236863 -1.49754,-0.59369 -2.55813,-2.052024 -2.55813,-3.760893 0,-0.96347 0.75256,-2.547597 1.60821,-4.038366 -0.0286,-0.04181 -0.12735,-0.190718 -0.12735,-0.190718 z"
           style="opacity:1;fill:#224579;fill-opacity:1;stroke:none;stroke-width:0.6698674;stroke-linecap:square;stroke-miterlimit:4;stroke-dasharray:none;stroke-dashoffset:0;stroke-opacity:1;paint-order:normal" />
        <path
           id="path3738"
           transform="scale(0.26458333)"
           d="m 866.38086,-120.52734 c 0,0 -13.31836,18.3464 -13.31836,25.701168 0,7.35476 5.96359,13.31836 13.31836,13.31836 7.35473,0 13.31641,-5.9636 13.31641,-13.31836 0,-7.354768 -13.31641,-25.701168 -13.31641,-25.701168 z m 2.47266,6.04296 c 0,0 3.85225,6.94309 4.5625,9.59376 0.4117,1.53718 -0.74756,5.367724 -3.30079,4.68359 -7.045,-2.37252 0.97524,-7.02221 -1.26171,-14.27735 z m -8.9375,24.710942 c 0.23017,-0.04911 0.4572,0.0033 0.64257,0.201172 4.16576,4.445549 7.9949,2.488978 11.79688,0 0.88978,-0.5825 2.42503,1.176181 1.875,1.775391 -7.44582,8.461629 -15.35586,1.164635 -15.54688,0 -0.18963,-0.771313 0.5419,-1.829232 1.23243,-1.976563 z"
           style="opacity:1;fill:#224579;fill-opacity:1;stroke:none;stroke-width:2.53178215;stroke-linecap:square;stroke-miterlimit:4;stroke-dasharray:none;stroke-dashoffset:0;stroke-opacity:1;paint-order:normal"
           inkscape:connector-curvature="0" />
        <path
           style="opacity:1;fill:#224579;fill-opacity:1;stroke:none;stroke-width:0.6698674;stroke-linecap:square;stroke-miterlimit:4;stroke-dasharray:none;stroke-dashoffset:0;stroke-opacity:1;paint-order:normal"
           d="m 226.68269,-29.350115 c 0,0 -2.68548,3.868255 -2.68548,5.418935 0,1.550681 1.20223,2.807905 2.68548,2.807905 0.38324,0 0.74741,-0.08564 1.07727,-0.236863 -1.49754,-0.59369 -2.55813,-2.052024 -2.55813,-3.760893 0,-0.96347 0.75256,-2.547597 1.60821,-4.038366 -0.0286,-0.04181 -0.12735,-0.190718 -0.12735,-0.190718 z"
           id="path3740"
           inkscape:connector-curvature="0" />
      </g>
      <g
         style="fill:#224579;fill-opacity:1;stroke-width:0.42593077"
         transform="matrix(1.1030938,0,0,1.1030938,34.500243,87.544017)"
         id="g3759">
        <path
           inkscape:connector-curvature="0"
           id="path3744"
           style="font-style:normal;font-variant:normal;font-weight:200;font-stretch:normal;font-size:10.58333302px;line-height:1.25;font-family:'Fira Sans';-inkscape-font-specification:'Fira Sans, Ultra-Light';font-variant-ligatures:normal;font-variant-caps:normal;font-variant-numeric:normal;font-feature-settings:normal;text-align:start;letter-spacing:0px;word-spacing:0px;writing-mode:lr-tb;text-anchor:start;fill:#224579;fill-opacity:1;stroke:none;stroke-width:0.1126942"
           d="m 208.50721,-96.840277 h -1.54516 v 7.217833 h 0.37041 v -2.921 h 1.12184 c 1.54516,0 2.63525,-0.592667 2.63525,-2.19075 0,-1.481667 -0.94192,-2.106083 -2.58234,-2.106083 z m -0.0212,3.958166 h -1.15359 v -3.630083 h 1.17475 c 1.40759,0 2.19075,0.465667 2.19075,1.788583 0,1.407584 -0.92075,1.8415 -2.21191,1.8415 z" />
        <path
           inkscape:connector-curvature="0"
           id="path3746"
           style="font-style:normal;font-variant:normal;font-weight:200;font-stretch:normal;font-size:10.58333302px;line-height:1.25;font-family:'Fira Sans';-inkscape-font-specification:'Fira Sans, Ultra-Light';font-variant-ligatures:normal;font-variant-caps:normal;font-variant-numeric:normal;font-feature-settings:normal;text-align:start;letter-spacing:0px;word-spacing:0px;writing-mode:lr-tb;text-anchor:start;fill:#224579;fill-opacity:1;stroke:none;stroke-width:0.1126942"
           d="m 216.46323,-89.622444 h 0.4445 l -2.01083,-3.429 c 0.99483,-0.22225 1.64042,-0.762 1.64042,-1.883833 0,-1.227667 -0.75142,-1.905 -2.44475,-1.905 h -1.64042 v 7.217833 h 0.37042 v -3.3655 h 1.68275 z m -3.64066,-3.704167 v -3.185583 h 1.23825 c 1.524,0 2.08491,0.560917 2.08491,1.576917 0,1.11125 -0.73025,1.608666 -1.97908,1.608666 z" />
        <path
           inkscape:connector-curvature="0"
           id="path3748"
           style="font-style:normal;font-variant:normal;font-weight:200;font-stretch:normal;font-size:10.58333302px;line-height:1.25;font-family:'Fira Sans';-inkscape-font-specification:'Fira Sans, Ultra-Light';font-variant-ligatures:normal;font-variant-caps:normal;font-variant-numeric:normal;font-feature-settings:normal;text-align:start;letter-spacing:0px;word-spacing:0px;writing-mode:lr-tb;text-anchor:start;fill:#224579;fill-opacity:1;stroke:none;stroke-width:0.1126942"
           d="m 222.58172,-89.622444 h 0.39159 l -2.4765,-7.217833 h -0.45509 l -2.4765,7.217833 h 0.37042 l 0.6985,-2.084917 h 3.24908 z m -3.83116,-2.423583 1.51341,-4.497917 1.50284,4.497917 z" />
        <path
           inkscape:connector-curvature="0"
           id="path3750"
           style="font-style:normal;font-variant:normal;font-weight:200;font-stretch:normal;font-size:10.58333302px;line-height:1.25;font-family:'Fira Sans';-inkscape-font-specification:'Fira Sans, Ultra-Light';font-variant-ligatures:normal;font-variant-caps:normal;font-variant-numeric:normal;font-feature-settings:normal;text-align:start;letter-spacing:0px;word-spacing:0px;writing-mode:lr-tb;text-anchor:start;fill:#224579;fill-opacity:1;stroke:none;stroke-width:0.1126942"
           d="m 224.85284,-96.840277 h -0.37042 v 7.217833 h 0.37042 z m 3.683,0 h -0.4445 l -3.20675,3.33375 3.3655,3.884083 h 0.45508 l -3.35491,-3.884083 z" />
        <path
           inkscape:connector-curvature="0"
           id="path3752"
           style="font-style:normal;font-variant:normal;font-weight:200;font-stretch:normal;font-size:10.58333302px;line-height:1.25;font-family:'Fira Sans';-inkscape-font-specification:'Fira Sans, Ultra-Light';font-variant-ligatures:normal;font-variant-caps:normal;font-variant-numeric:normal;font-feature-settings:normal;text-align:start;letter-spacing:0px;word-spacing:0px;writing-mode:lr-tb;text-anchor:start;fill:#224579;fill-opacity:1;stroke:none;stroke-width:0.1126942"
           d="m 234.34344,-96.840277 h -4.81541 v 0.34925 h 2.19075 v 6.868583 h 0.37041 v -6.868583 h 2.19075 z" />
        <path
           inkscape:connector-curvature="0"
           id="path3754"
           style="font-style:normal;font-variant:normal;font-weight:200;font-stretch:normal;font-size:10.58333302px;line-height:1.25;font-family:'Fira Sans';-inkscape-font-specification:'Fira Sans, Ultra-Light';font-variant-ligatures:normal;font-variant-caps:normal;font-variant-numeric:normal;font-feature-settings:normal;text-align:start;letter-spacing:0px;word-spacing:0px;writing-mode:lr-tb;text-anchor:start;fill:#224579;fill-opacity:1;stroke:none;stroke-width:0.1126942"
           d="m 235.67651,-96.840277 h -0.37041 v 7.217833 h 0.37041 z" />
        <path
           inkscape:connector-curvature="0"
           id="path3756"
           style="font-style:normal;font-variant:normal;font-weight:200;font-stretch:normal;font-size:10.58333302px;line-height:1.25;font-family:'Fira Sans';-inkscape-font-specification:'Fira Sans, Ultra-Light';font-variant-ligatures:normal;font-variant-caps:normal;font-variant-numeric:normal;font-feature-settings:normal;text-align:start;letter-spacing:0px;word-spacing:0px;writing-mode:lr-tb;text-anchor:start;fill:#224579;fill-opacity:1;stroke:none;stroke-width:0.1126942"
           d="m 237.97865,-96.840277 h -0.37041 v 7.217833 h 0.37041 z m 3.683,0 h -0.4445 l -3.20675,3.33375 3.3655,3.884083 h 0.45509 l -3.35492,-3.884083 z" />
      </g>
    </g>
  </g>
</svg>
