<?xml version="1.0" encoding="UTF-8" standalone="no"?>
<!-- Created with Inkscape (http://www.inkscape.org/) -->

<svg
   xmlns:dc="http://purl.org/dc/elements/1.1/"
   xmlns:cc="http://creativecommons.org/ns#"
   xmlns:rdf="http://www.w3.org/1999/02/22-rdf-syntax-ns#"
   xmlns:svg="http://www.w3.org/2000/svg"
   xmlns="http://www.w3.org/2000/svg"
   xmlns:sodipodi="http://sodipodi.sourceforge.net/DTD/sodipodi-0.dtd"
   xmlns:inkscape="http://www.inkscape.org/namespaces/inkscape"
   width="670.87598"
   height="595.151"
   viewBox="0 0 177.50259 157.46704"
   version="1.1"
   id="svg3946"
   inkscape:version="0.92.4 (5da689c313, 2019-01-14)"
   sodipodi:docname="vector_bath.svg">
  <defs
     id="defs3940">
    <clipPath
       clipPathUnits="userSpaceOnUse"
       id="clipPath2328">
      <rect
         rx="4.0349584"
         style="opacity:1;fill:#3d76ca;fill-opacity:1;fill-rule:nonzero;stroke:none;stroke-width:52.91666412;stroke-linecap:round;stroke-miterlimit:4;stroke-dasharray:none;stroke-dashoffset:0;stroke-opacity:0.99607843;paint-order:normal"
         id="rect2330"
         width="95.549629"
         height="148.76715"
         x="-1030.1995"
         y="456.05017"
         ry="4.0349584" />
    </clipPath>
    <clipPath
       clipPathUnits="userSpaceOnUse"
       id="clipPath2324">
      <rect
         rx="4.0349584"
         style="opacity:1;fill:#3d76ca;fill-opacity:1;fill-rule:nonzero;stroke:none;stroke-width:53.78142166;stroke-linecap:round;stroke-miterlimit:4;stroke-dasharray:none;stroke-dashoffset:0;stroke-opacity:0.99607843;paint-order:normal"
         id="rect2326"
         width="76.079025"
         height="272.93909"
         x="-820.27081"
         y="836.70294"
         ry="4.0349584"
         transform="matrix(0.45970085,0.88807383,-0.74456065,0.66755482,0,0)" />
    </clipPath>
    <clipPath
       clipPathUnits="userSpaceOnUse"
       id="clipPath2320">
      <rect
         rx="4.0349584"
         style="opacity:1;fill:#3d76ca;fill-opacity:1;fill-rule:nonzero;stroke:none;stroke-width:53.78142166;stroke-linecap:round;stroke-miterlimit:4;stroke-dasharray:none;stroke-dashoffset:0;stroke-opacity:0.99607843;paint-order:normal"
         id="rect2322"
         width="76.079025"
         height="272.93909"
         x="-820.27081"
         y="836.70294"
         ry="4.0349584"
         transform="matrix(0.45970085,0.88807383,-0.74456065,0.66755482,0,0)" />
    </clipPath>
    <clipPath
       clipPathUnits="userSpaceOnUse"
       id="clipPath2316">
      <rect
         rx="4.0349584"
         style="opacity:1;fill:#3d76ca;fill-opacity:1;fill-rule:nonzero;stroke:none;stroke-width:53.78142166;stroke-linecap:round;stroke-miterlimit:4;stroke-dasharray:none;stroke-dashoffset:0;stroke-opacity:0.99607843;paint-order:normal"
         id="rect2318"
         width="76.079025"
         height="272.93909"
         x="-820.27081"
         y="836.70294"
         ry="4.0349584"
         transform="matrix(0.45970085,0.88807383,-0.74456065,0.66755482,0,0)" />
    </clipPath>
    <clipPath
       clipPathUnits="userSpaceOnUse"
       id="clipPath2312">
      <rect
         rx="4.0349584"
         style="opacity:1;fill:#3d76ca;fill-opacity:1;fill-rule:nonzero;stroke:none;stroke-width:53.78142166;stroke-linecap:round;stroke-miterlimit:4;stroke-dasharray:none;stroke-dashoffset:0;stroke-opacity:0.99607843;paint-order:normal"
         id="rect2314"
         width="76.079025"
         height="272.93909"
         x="-820.27081"
         y="836.70294"
         ry="4.0349584"
         transform="matrix(0.45970085,0.88807383,-0.74456065,0.66755482,0,0)" />
    </clipPath>
    <clipPath
       clipPathUnits="userSpaceOnUse"
       id="clipPath2328-3">
      <rect
         rx="4.0349584"
         style="opacity:1;fill:#3d76ca;fill-opacity:1;fill-rule:nonzero;stroke:none;stroke-width:52.91666412;stroke-linecap:round;stroke-miterlimit:4;stroke-dasharray:none;stroke-dashoffset:0;stroke-opacity:0.99607843;paint-order:normal"
         id="rect2330-6"
         width="95.549629"
         height="148.76715"
         x="-1030.1995"
         y="456.05017"
         ry="4.0349584" />
    </clipPath>
    <clipPath
       clipPathUnits="userSpaceOnUse"
       id="clipPath2324-7">
      <rect
         rx="4.0349584"
         style="opacity:1;fill:#3d76ca;fill-opacity:1;fill-rule:nonzero;stroke:none;stroke-width:53.78142166;stroke-linecap:round;stroke-miterlimit:4;stroke-dasharray:none;stroke-dashoffset:0;stroke-opacity:0.99607843;paint-order:normal"
         id="rect2326-5"
         width="76.079025"
         height="272.93909"
         x="-820.27081"
         y="836.70294"
         ry="4.0349584"
         transform="matrix(0.45970085,0.88807383,-0.74456065,0.66755482,0,0)" />
    </clipPath>
    <clipPath
       clipPathUnits="userSpaceOnUse"
       id="clipPath2320-3">
      <rect
         rx="4.0349584"
         style="opacity:1;fill:#3d76ca;fill-opacity:1;fill-rule:nonzero;stroke:none;stroke-width:53.78142166;stroke-linecap:round;stroke-miterlimit:4;stroke-dasharray:none;stroke-dashoffset:0;stroke-opacity:0.99607843;paint-order:normal"
         id="rect2322-5"
         width="76.079025"
         height="272.93909"
         x="-820.27081"
         y="836.70294"
         ry="4.0349584"
         transform="matrix(0.45970085,0.88807383,-0.74456065,0.66755482,0,0)" />
    </clipPath>
    <clipPath
       clipPathUnits="userSpaceOnUse"
       id="clipPath2316-6">
      <rect
         rx="4.0349584"
         style="opacity:1;fill:#3d76ca;fill-opacity:1;fill-rule:nonzero;stroke:none;stroke-width:53.78142166;stroke-linecap:round;stroke-miterlimit:4;stroke-dasharray:none;stroke-dashoffset:0;stroke-opacity:0.99607843;paint-order:normal"
         id="rect2318-2"
         width="76.079025"
         height="272.93909"
         x="-820.27081"
         y="836.70294"
         ry="4.0349584"
         transform="matrix(0.45970085,0.88807383,-0.74456065,0.66755482,0,0)" />
    </clipPath>
    <clipPath
       clipPathUnits="userSpaceOnUse"
       id="clipPath2312-9">
      <rect
         rx="4.0349584"
         style="opacity:1;fill:#3d76ca;fill-opacity:1;fill-rule:nonzero;stroke:none;stroke-width:53.78142166;stroke-linecap:round;stroke-miterlimit:4;stroke-dasharray:none;stroke-dashoffset:0;stroke-opacity:0.99607843;paint-order:normal"
         id="rect2314-1"
         width="76.079025"
         height="272.93909"
         x="-820.27081"
         y="836.70294"
         ry="4.0349584"
         transform="matrix(0.45970085,0.88807383,-0.74456065,0.66755482,0,0)" />
    </clipPath>
    <clipPath
       clipPathUnits="userSpaceOnUse"
       id="clipPath10651">
      <rect
         y="458.28601"
         x="1667.9686"
         height="182.99277"
         width="243.14903"
         id="rect10653"
         style="opacity:0.819;fill:#2c5ba1;fill-opacity:1;fill-rule:nonzero;stroke:none;stroke-width:52.91666412;stroke-linecap:round;stroke-miterlimit:4;stroke-dasharray:none;stroke-dashoffset:0;stroke-opacity:0.99607843;paint-order:normal" />
    </clipPath>
    <clipPath
       clipPathUnits="userSpaceOnUse"
       id="clipPath10647">
      <rect
         y="458.28601"
         x="1667.9686"
         height="182.99277"
         width="243.14903"
         id="rect10649"
         style="opacity:0.819;fill:#2c5ba1;fill-opacity:1;fill-rule:nonzero;stroke:none;stroke-width:52.91666412;stroke-linecap:round;stroke-miterlimit:4;stroke-dasharray:none;stroke-dashoffset:0;stroke-opacity:0.99607843;paint-order:normal" />
    </clipPath>
    <clipPath
       clipPathUnits="userSpaceOnUse"
       id="clipPath10643">
      <rect
         y="-149.2773"
         x="453.76834"
         height="100.10977"
         width="61.681381"
         id="rect10645"
         style="opacity:0.819;fill:#2c5ba1;fill-opacity:1;fill-rule:nonzero;stroke:none;stroke-width:52.91666794;stroke-linecap:round;stroke-miterlimit:4;stroke-dasharray:none;stroke-dashoffset:0;stroke-opacity:0.99607843;paint-order:normal"
         transform="scale(1,-1)" />
    </clipPath>
  </defs>
  <sodipodi:namedview
     id="base"
     pagecolor="#4d4d4d"
     bordercolor="#666666"
     borderopacity="1.0"
     inkscape:pageopacity="0"
     inkscape:pageshadow="2"
     inkscape:zoom="0.49497475"
     inkscape:cx="180.81731"
     inkscape:cy="262.05765"
     inkscape:document-units="px"
     inkscape:current-layer="layer1"
     showgrid="false"
     units="px"
     inkscape:pagecheckerboard="true"
     borderlayer="true"
     inkscape:showpageshadow="false"
     inkscape:window-width="960"
     inkscape:window-height="1016"
     inkscape:window-x="960"
     inkscape:window-y="27"
     inkscape:window-maximized="0" />
  <metadata
     id="metadata3943">
    <rdf:RDF>
      <cc:Work
         rdf:about="">
        <dc:format>image/svg+xml</dc:format>
        <dc:type
           rdf:resource="http://purl.org/dc/dcmitype/StillImage" />
        <dc:title></dc:title>
      </cc:Work>
    </rdf:RDF>
  </metadata>
  <g
     inkscape:label="Layer 1"
     inkscape:groupmode="layer"
     id="layer1"
     transform="translate(0,-139.53292)">
    <g
       style="display:inline;opacity:0.98999999;enable-background:new"
       id="g5108"
       transform="translate(1391.7049,-1256.1072)"
       inkscape:export-xdpi="96"
       inkscape:export-ydpi="96">
      <path
         inkscape:export-ydpi="96"
         inkscape:export-xdpi="96"
         style="opacity:1;fill:#67a0f3;fill-opacity:1;fill-rule:nonzero;stroke:none;stroke-width:52.91666794;stroke-linecap:round;stroke-miterlimit:4;stroke-dasharray:none;stroke-dashoffset:0;stroke-opacity:0.99607843;paint-order:normal"
         d="m -1255.5928,1398.6042 21.5452,-2.7131 c 26.7592,-3.3697 19.9722,28.0704 16.2224,41.7091 l -9.9831,36.3091 c -3.75,13.6388 -57.0219,41.7091 -84.6205,41.7091 h -57.2019 c -27.5988,0 -25.4591,-38.7409 -14.4092,-51.3558 l 23.8829,-27.2653 c 11.0502,-12.6149 77.8052,-35.0235 104.5642,-38.3931 z"
         id="path5096"
         inkscape:connector-curvature="0"
         sodipodi:nodetypes="sssssssss" />
      <g
         inkscape:export-ydpi="96"
         inkscape:export-xdpi="96"
         style="stroke-width:2.62083411"
         id="g5106"
         transform="matrix(0.38155792,0,0,0.38155792,-2168.6748,1641.6793)">
        <path
           sodipodi:nodetypes="cccscscccccsccccsccccccccccccccccccccccccccccccccccscccscccccccccccscccccccc"
           style="fill:#1e4478;fill-opacity:0.99215686;stroke-width:2.62083411"
           d="m 2370.365,-280.66111 c 28.2336,-2.31875 34.2353,-3.45769 31.8883,-6.05117 -3.8308,-4.23307 5.5195,-12.35638 14.2249,-12.35827 2.8786,-6.3e-4 8.852,5.4167 8.852,8.02774 0,5.24575 20.7893,-5.76602 28.7176,-15.21127 6.364,-7.58161 14.4401,-24.63799 14.4401,-30.49728 0,-1.4455 0.5574,-5.19309 1.2388,-8.32796 0.6811,-3.13488 1.4653,-11.01308 1.7426,-17.5071 0.5038,-11.80732 0.5038,-11.80732 4.1111,-15.70123 16.712,-18.04002 1.9592,-45.81408 -24.5216,-46.16486 -0.8525,-0.0114 -2.9031,-1.48627 -4.5571,-3.27773 -2.571,-2.78521 -3.4925,-3.25719 -6.3578,-3.25719 -3.2128,0 -3.3864,-0.13237 -4.2164,-3.21442 -3.0589,-11.35938 -23.658,-16.41241 -31.7581,-7.7903 -1.8632,1.98307 -1.8632,1.98307 -3.4519,-0.0367 -4.5201,-5.74665 -15.3763,-6.10845 -21.0459,-0.7014 -2.0935,1.99658 -2.0935,1.99658 -5.4281,-1.17564 -7.3775,-7.01811 -20.9133,-5.95897 -25.6117,2.00403 -1.5034,2.54847 -1.8127,2.71757 -3.0016,1.64156 -4.5023,-4.07438 -11.6742,-3.58292 -16.3796,1.12239 -3.1322,3.13224 -3.1322,3.13224 -4.6236,1.45752 -5.3117,-5.96531 -18.9467,-5.18639 -25.1956,1.43933 -2.5274,2.6797 -2.8425,2.79832 -4.5697,1.71924 -5.6783,-3.54797 -14.0615,-1.54186 -16.7028,3.99707 -0.983,2.06116 -1.7038,2.687 -2.6188,2.27363 -2.2531,-1.01811 -8.0154,-1.28278 -9.5259,-0.43754 -1.1883,0.66507 -2.1255,0.22131 -4.8643,-2.30322 -5.8115,-5.35701 -14.4262,-5.29519 -19.8638,0.14253 -2.5412,2.54118 -2.5412,2.54118 -5.0745,-0.53219 -6.3673,-7.72474 -19.279,-8.30418 -25.8058,-1.1581 -2.3117,2.53065 -2.4539,2.5698 -6.0479,1.66478 -5.4712,-1.37768 -6.6909,-1.1759 -9.8947,1.63729 -2.9204,2.56412 -2.9204,2.56412 -4.1293,0.83816 -1.866,-2.66404 -6.6785,-3.8093 -10.1148,-2.40711 -2.6064,1.06355 -3.0074,1.0105 -5.5856,-0.73899 -4.2272,-2.86868 -9.67,-2.25025 -13.7387,1.56103 -1.5582,1.4598 -2.1273,1.57053 -3.9061,0.76006 -4.0004,-1.82276 -8.3673,-1.02365 -12.0639,2.20771 -1.1196,0.97864 -2.748,1.24712 -6.3172,1.04153 -6.3356,-0.36496 -11.0392,3.53981 -10.235,8.49677 0.3908,2.40823 0.24,2.83703 -0.9147,2.61818 -2.2045,-0.4174 -2.2704,-5.3051 -0.1108,-8.22616 2.4092,-3.25884 2.363,-7.76914 -0.117,-11.24994 -3.6565,-5.1352 -2.0943,-33.41244 2.3326,-42.22461 6.2332,-12.40701 25.3273,-13.19311 32.0341,-1.31884 2.6004,4.60338 3.2728,17.95444 1.1071,21.97595 -3.0383,5.64195 7.0232,11.32166 12.2992,6.94288 1.4761,-1.22508 1.4945,-6.78455 0.031,-8.0029 -0.8066,-0.66952 -1.2175,-3.75515 -1.4566,-10.93695 -0.6679,-20.06178 -13.4808,-31.73663 -32.3909,-29.51413 -18.1419,2.13225 -25.082,13.23053 -25.8813,41.38788 -0.2369,8.39745 -0.6155,15.26808 -0.8386,15.26808 -0.2216,0 -1.8248,-1.28251 -3.56,-2.85004 -3.8027,-3.43576 -5.4437,-3.55819 -8.185,-0.61072 -6.4129,6.89523 -6.0833,8.26761 2.993,12.46081 5.0902,2.35175 6.9281,3.60546 6.9281,4.72638 0,0.83908 0.7119,2.43067 1.582,3.53687 3.5227,4.47842 3.1179,17.79616 -0.6177,20.31572 -9.0573,6.10912 -11.5102,22.51784 -4.9194,32.91011 l 6.1077,29.41692 1.4028,6.59067 c 0.2154,0.3473 1.6927,4.65142 3.2844,9.5647 7.0273,21.69024 15.5979,31.01684 32.2465,35.09078 10.0126,2.45011 9.2373,2.60703 12.0891,-2.44646 3.5873,-6.35625 6.1095,-8.10844 10.8709,-7.55198 9.9242,1.15979 15.6644,7.63241 11.0885,12.50321 -1.0824,1.15195 -1.4816,2.17422 -1.0181,2.60617 1.1877,1.1066 33.2969,3.80603 62.6495,5.26699 17.5427,0.87314 107.671,-0.17671 122.959,-1.43226 z m -124.6305,-197.62538 c -0.2616,-0.42423 -0.8238,-0.5568 -1.2479,-0.29463 -0.4245,0.26219 -0.5568,0.82379 -0.2955,1.24801 0.2616,0.42423 0.8239,0.5568 1.2483,0.29463 0.4241,-0.26219 0.5567,-0.82379 0.2954,-1.24801 z"
           id="path5098"
           inkscape:connector-curvature="0" />
        <path
           sodipodi:nodetypes="sccscscccccscscsccccccscssccccscccccccccccccccccccccccccscccccsccccccscsccscsccscsccscscccccs"
           style="fill:#3d76ca;fill-opacity:1;stroke-width:2.62083411"
           d="m 2371.1794,-287.70921 c 4.4786,-0.39684 11.2599,-0.73386 15.0697,-0.74895 8.8969,-0.0353 11.9364,-0.95418 14.851,-4.48986 6.2787,-7.61722 16.636,-9.98817 21.4294,-4.90561 3.1023,3.28939 7.7382,2.81313 21.2916,-2.18737 8.6947,-3.20794 23.0381,-25.58695 23.0381,-35.94471 0,-8.93723 -19.7832,-12.66156 -47.0392,-8.85542 -6.8374,0.95481 -12.8838,1.56344 -13.4359,1.35252 -1.5068,-0.57537 -23.2976,2.60573 -24.4606,3.57079 -0.5543,0.46013 -5.0308,1.23835 -9.9476,1.72939 -4.9166,0.49104 -11.5169,1.25907 -14.6672,1.70673 -17.9616,2.55244 -91.9655,3.39664 -127.41,1.45344 -53.6337,-2.94038 -60.5292,-1.70369 -58.2496,10.44708 4.7257,25.19157 110.5831,44.75332 199.5303,36.87197 z m -55.7795,-59.00044 c 10.9727,-0.65871 24.7139,-1.60379 30.5362,-2.10017 5.8223,-0.49638 14.4333,-1.19185 19.136,-1.54548 8.5903,-0.64599 35.4869,-4.5397 47.6363,-6.89611 3.583,-0.69492 7.9985,-1.26355 9.8125,-1.26363 1.8137,-7e-5 3.6458,-0.34088 4.0714,-0.75734 0.4254,-0.41647 4.4667,-1.68942 8.98,-2.82878 40.727,-10.28048 56.8678,-28.64754 41.8602,-47.63354 -4.5124,-5.70896 -20.6529,-13.92429 -27.3561,-13.92429 -1.288,0 -2.3088,-0.78285 -3.1549,-2.41876 -1.5259,-2.95083 -3.5174,-4.09563 -7.1248,-4.09563 -3.2127,0 -4.6949,-1.2151 -4.6949,-3.84863 0,-9.79822 -22.2854,-15.26991 -30.1522,-7.40319 -2.5332,2.53328 -2.5332,2.53328 -4.8775,-0.0331 -5.3459,-5.85318 -16.3565,-5.62602 -21.1247,0.43585 -1.5521,1.97308 -1.5521,1.97308 -3.3073,-0.40115 -6.5683,-8.88404 -27.6681,-7.08777 -27.6681,2.35545 0,1.31454 -2.1378,0.8104 -3.6501,-0.86085 -3.3919,-3.74806 -10.8023,-2.72657 -15.0135,2.06953 -2.6548,3.02371 -3.7203,3.43213 -4.3912,1.68329 -2.4674,-6.42925 -19.5518,-5.67995 -25.2636,1.108 -2.243,2.66561 -2.243,2.66561 -5.2966,1.28858 -6.685,-3.01451 -12.9998,-1.28078 -15.6004,4.28308 -0.955,2.04297 -1.577,2.50222 -2.8502,2.10471 -3.7369,-1.16676 -7.1088,-1.27296 -9.4623,-0.29804 -2.3661,0.97997 -2.6117,0.90016 -4.4457,-1.44303 -5.1184,-6.54029 -16.1546,-6.3952 -21.47,0.28225 -1.7509,2.19951 -1.9199,2.24979 -2.7862,0.82839 -6.2301,-10.22429 -20.9527,-11.84207 -27.4758,-3.01914 -1.252,1.69373 -2.2969,2.36369 -3.134,2.00956 -5.3478,-2.26282 -10.232,-1.72625 -13.679,1.5027 -1.8377,1.72145 -1.8377,1.72145 -4.0714,-0.40331 -3.0432,-2.89439 -5.9519,-3.49041 -9.097,-1.86397 -2.4175,1.25014 -2.6736,1.23432 -4.6048,-0.28459 -4.3983,-3.45969 -10.1677,-3.13134 -14.0086,0.79729 -2.2642,2.31591 -2.4439,2.36047 -4.7245,1.17109 -3.976,-2.07345 -10.1353,-0.81928 -11.9564,2.43453 -0.4635,0.82801 -1.6887,0.99834 -4.6553,0.64702 -6.9789,-0.82655 -11.8314,2.83746 -11.2347,8.48296 0.1693,1.60612 -0.1785,2.27961 -1.2987,2.50831 -3.2353,0.66063 -3.9951,-5.22779 -1.3191,-10.2208 2.1525,-4.01601 2.0546,-5.84693 -0.4918,-9.21532 -3.4935,-4.62113 -1.7155,-34.7561 2.5437,-43.11241 7.6406,-14.9905 30.0856,-14.00697 35.2933,1.54653 1.1763,3.51349 1.2188,17.37873 0.055,18.54074 -2.6969,2.69689 -0.4881,7.18305 3.6658,7.446 7.6216,0.48244 9.9726,-2.13436 6.6555,-7.40805 -0.7414,-1.17851 -1.264,-5.22611 -1.5081,-11.67967 -0.7075,-18.70327 -10.1803,-28.16792 -28.3009,-28.2766 -19.6872,-0.11809 -27.4109,11.10787 -28.2101,41.00281 -0.5014,18.74538 -0.2709,18.07731 -4.8172,13.88539 -4.5309,-4.17626 -6.3778,-4.08222 -9.5835,0.48798 -2.9337,4.18261 -2.6388,4.68546 4.7513,8.09987 10.9063,5.03907 15.3218,23.86846 7.3466,31.32938 -9.7278,9.10071 -10.3434,21.81839 -1.6745,34.59288 2.2211,3.27286 8.5377,7.69163 10.9955,7.69163 0.8535,0 4.0469,0.88089 7.0968,1.95754 12.9659,4.57732 40.2743,8.53337 75.9819,11.00723 16.9293,1.17289 87.5512,0.94964 109.1157,-0.34495 z m -73.694,-7.40838 c -46.0283,-1.38841 -97.1538,-8.2832 -105.6219,-14.24422 -1.2136,-0.8542 -3.1365,-1.5531 -4.2728,-1.5531 -1.2178,0 -3.362,-1.17037 -5.2212,-2.85004 -1.7349,-1.56752 -3.4765,-2.85254 -3.8702,-2.8556 -1.1775,-0.009 -4.3798,-5.25179 -4.3798,-7.16993 0,-2.43092 0.1816,-2.34835 5.0446,2.2897 2.3476,2.23932 4.7802,4.07149 5.4053,4.07149 0.6254,0 2.8355,0.88662 4.9113,1.97025 28.0458,14.63943 149.5128,19.23985 235.8495,8.93255 5.8223,-0.69509 12.6011,-1.41788 15.0645,-1.60622 6.3369,-0.4845 11.5631,-1.40369 26.7501,-4.70477 38.392,-8.34491 52.2368,-15.58361 52.2368,-27.31164 0,-4.38008 1.3813,-4.94255 2.9454,-1.19932 5.4145,12.95854 -16.9358,27.99348 -48.9533,32.93059 -7.1485,1.10233 -11.6126,2.01934 -17.0407,3.50055 -2.6545,0.72435 -7.7843,1.52023 -11.4,1.76863 -3.6159,0.2484 -8.5894,0.97492 -11.0528,1.61451 -15.1141,3.92439 -94.7753,7.67198 -136.3948,6.41657 z"
           id="path5100"
           inkscape:connector-curvature="0" />
        <path
           sodipodi:nodetypes="cccccssccccccccccccsccccccccccccccsscccccsscccscsccccccccsscccccccccccccccccccccccccscsscccccccccccccccsssscccccccccsccccscccsccccccccccccccccccccccccccccccsccccc"
           style="fill:#c7d8f0;fill-opacity:1;stroke-width:2.62083411"
           d="m 2306.8498,-361.79584 c 32.2022,-1.48669 74.4181,-5.48982 89.98,-8.53231 3.359,-0.65673 9.2219,-1.77855 13.0287,-2.49295 36.4022,-6.83128 54.4887,-16.32361 52.5267,-27.56756 -0.3188,-1.82602 -0.6334,-5.88508 -0.6992,-9.02013 -0.1754,-8.3477 -4.8446,-13.43591 -12.3297,-13.43591 -1.3871,0 -2.3766,-0.73129 -3.235,-2.39126 -1.612,-3.11756 -2.4809,-3.60357 -7.3442,-4.10862 -3.9699,-0.41226 -4.0714,-0.4903 -4.5589,-3.50564 -1.7475,-10.80907 -21.0971,-15.7661 -28.9673,-7.42104 -3.1626,3.35309 -3.9465,3.43113 -5.324,0.52989 -3.1023,-6.53369 -15.5201,-6.70426 -20.2707,-0.27844 -2.34,3.16483 -2.6527,3.14554 -4.679,-0.28856 -4.984,-8.44749 -20.423,-8.27653 -25.2316,0.27939 -2.2076,3.92755 -1.9875,3.86884 -5.2889,1.41241 -5.3666,-3.99323 -11.9463,-2.95089 -15.2646,2.41813 -1.9682,3.18454 -3.1925,3.4668 -4.683,1.07974 -4.7205,-7.55839 -19.0255,-6.01946 -26.0284,2.80008 -0.9494,1.19598 -1.3031,1.16913 -4.0594,-0.30805 -6.4068,-3.43391 -15.6647,-0.10714 -15.6647,5.62907 0,2.07433 -1.5025,2.17404 -4.7421,0.31471 -2.1337,-1.22449 -2.924,-1.26903 -6.4557,-0.36386 -4.0246,1.03145 -4.0246,1.03145 -6.8339,-1.77795 -5.6761,-5.67612 -13.8738,-5.51025 -18.9181,0.38279 -3.3318,3.89271 -3.7676,3.902 -5.8011,0.12373 -4.6968,-8.72758 -17.1351,-9.98053 -24.3165,-2.44949 -2.9986,3.14438 -3.2673,3.25412 -5.758,2.35339 -4.6999,-1.69951 -8.2605,-1.19703 -11.4671,1.61828 -2.9192,2.56309 -2.9192,2.56309 -5.5635,0 -2.8708,-2.78253 -6.5649,-3.38555 -9.5023,-1.55113 -1.2941,0.80811 -1.9069,0.80481 -3.0425,-0.0163 -5.7014,-4.1222 -11.6499,-3.87275 -14.851,0.62278 -1.7032,2.39192 -1.7032,2.39192 -4.903,0.72405 -3.9631,-2.06571 -7.3171,-1.50759 -10.77,1.79214 -2.0325,1.94227 -2.7188,2.18565 -4.0914,1.45101 -5.096,-2.7274 -11.1861,0.94177 -11.1861,6.73961 0,6.88948 -6.1707,6.5403 -6.6742,-0.37769 -0.2277,-3.14808 -0.4342,-3.41553 -2.796,-3.64523 -2.549,-0.2479 -2.549,-0.2479 -2.9364,10.17872 -0.2893,7.75682 -0.7504,11.11403 -1.8051,13.11126 -1.801,3.41143 -1.1892,5.95927 2.4526,10.21406 1.541,1.80028 2.8019,3.51238 2.8019,3.80467 0,9.41833 48.608,19.44259 107.8945,22.2507 13.1194,0.62141 61.475,0.43488 77.3582,-0.29841 z m 15.2557,-18.90895 c -1.7211,-1.83217 -1.7211,-1.83217 1.8444,-1.83217 3.5658,0 3.5658,0 1.8448,1.83217 -0.9467,1.00769 -1.7768,1.83217 -1.8448,1.83217 -0.068,0 -0.8978,-0.82448 -1.8444,-1.83217 z m 13.3804,0.475 c -1.0261,-1.02612 -0.5392,-1.71087 1.493,-2.09932 2.2202,-0.42441 2.5806,0.14281 1.0584,1.66503 -1.1071,1.107 -1.7663,1.21926 -2.5514,0.43429 z m -136.5306,-1.38306 c 0,-0.6114 -0.8245,-2.16124 -1.8321,-3.4441 -1.8321,-2.33248 -1.8321,-2.33248 0.1816,-0.92412 1.1073,0.77461 2.6566,1.40837 3.4433,1.40837 1.2295,0 1.3,0.28499 0.5022,2.03574 -1.0027,2.20059 -2.2947,2.72093 -2.2947,0.92411 z m 20.5985,-1.53483 c -0.7479,-1.64087 -0.6124,-1.83826 1.2942,-1.89042 1.171,-0.032 2.7883,-0.35292 3.5937,-0.71309 0.8073,-0.36078 0.322,0.48811 -1.0802,1.89042 -3.0343,3.03411 -2.7727,2.98511 -3.8077,0.71309 z m 95.2508,-1.17503 c 0.7922,-0.20645 1.8916,-0.19288 2.4431,0.0302 0.5512,0.22306 -0.099,0.39198 -1.4407,0.37539 -1.3437,-0.0166 -1.7946,-0.1991 -1.0024,-0.40556 z m -163.0784,-3.91433 c -1.401,-0.80075 -1.6226,-1.17274 -0.7107,-1.19259 0.7291,-0.0159 1.7817,0.52079 2.3391,1.19259 1.2399,1.49385 0.9848,1.49385 -1.6284,0 z m 41.3763,0.66519 c 0.5879,-0.23523 1.2902,-0.2063 1.5607,0.0642 0.2709,0.27058 -0.2093,0.46304 -1.0685,0.42768 -0.9489,-0.0391 -1.1418,-0.23202 -0.4922,-0.49196 z m -51.1479,-1.88664 c -0.9836,-1.83781 -0.6051,-2.00961 1.7047,-0.77345 0.879,0.47034 1.3828,1.20321 1.12,1.6286 -0.7657,1.23885 -1.8857,0.89981 -2.8247,-0.85515 z m 69.826,1.0893 c 0.5598,-0.22589 1.4757,-0.22589 2.0355,0 0.5602,0.2259 0.1016,0.41072 -1.0178,0.41072 -1.1196,0 -1.5776,-0.18482 -1.0177,-0.41072 z m -77.562,-3.53219 c 0.277,-0.44787 1.4893,-0.78855 2.6945,-0.75706 1.9568,0.051 2.0171,0.13216 0.5629,0.75706 -2.2624,0.97214 -3.8582,0.97214 -3.2574,0 z m 283.6612,-1.07371 c -1.1877,-0.90344 -1.0313,-1.11958 1.3483,-1.86439 2.6856,-0.84051 2.689,-0.83806 1.4533,1.04781 -0.6814,1.03965 -1.288,1.87863 -1.3486,1.86439 -0.062,-0.0143 -0.7144,-0.48576 -1.453,-1.04781 z m -161.7101,-3.90654 c -0.9141,-2.42226 -0.8907,-2.47678 0.5182,-1.20181 0.9187,0.83144 2.0581,1.12233 3.0183,0.77067 1.509,-0.55247 1.509,-0.52611 0,1.20182 -2.0362,2.31884 -2.3913,2.24125 -3.5282,-0.77068 z m 169.7711,-1.25913 c 0.5598,-0.2259 1.476,-0.2259 2.0359,0 0.5598,0.22589 0.1015,0.41072 -1.0181,0.41072 -1.1197,0 -1.5776,-0.18483 -1.0178,-0.41072 z m -72.1933,-6.12811 c -0.5134,-1.48336 -1.7481,-3.33013 -2.7437,-4.10393 -0.996,-0.77381 -1.586,-1.41507 -1.3117,-1.42502 0.2739,-0.01 1.837,1.04546 3.4728,2.34538 2.0426,1.62336 3.5439,2.22322 4.7941,1.91552 1.0011,-0.24639 1.637,-0.30228 1.4129,-0.12418 -0.2246,0.17809 -1.3711,1.17103 -2.5492,2.20652 -2.1421,1.88273 -2.1421,1.88273 -3.0752,-0.81429 z m -185.2413,0.49357 c -0.714,-1.86085 -0.6559,-1.96915 1.0581,-1.96915 1.1516,0 1.4425,0.4206 1.1264,1.6286 -0.5112,1.95535 -1.5053,2.11033 -2.1845,0.34055 z m -4.2066,-4.86411 c -1.5179,-1.21607 -1.5077,-1.2311 0.2524,-0.3785 1.0076,0.48833 1.8321,1.05819 1.8321,1.26637 0,0.62311 -0.4222,0.44317 -2.0838,-0.88787 z m 135.3857,-2.50511 c -0.4426,-0.44279 3.9425,-5.1858 4.7944,-5.1858 0.1693,0 -0.3047,1.28252 -1.051,2.85004 -1.2828,2.68987 -2.5797,3.49921 -3.7434,2.33576 z m 112.0906,-4.79301 c -0.6279,-1.63664 0.461,-3.08458 1.6157,-2.14855 0.5202,0.42142 1.6244,0.89726 2.4545,1.05741 1.1501,0.22196 0.8971,0.52058 -1.064,1.25572 -2.0977,0.7864 -2.6529,0.75601 -3.0062,-0.1646 z m -21.9157,-6.54218 c -1.5496,-1.23887 -1.5472,-1.25453 0.1231,-0.80003 1.0513,0.28603 2.5039,-0.16564 3.7926,-1.17929 2.997,-2.35729 3.25,-2.02563 0.6103,0.80004 -2.6628,2.8504 -2.4917,2.80589 -4.5267,1.17928 z m -7.905,-0.46603 c 0.5524,-0.55651 1.2095,-0.8067 1.46,-0.55599 0.2524,0.25071 -0.2,0.70604 -1.0042,1.01183 -1.1606,0.4419 -1.2542,0.34837 -0.4558,-0.45584 z m 25.8674,-1.22202 c -1.464,-1.24597 -1.7635,-1.74139 -0.7472,-1.23662 1.4926,0.74138 4.2924,3.42183 3.4934,3.3447 -0.1662,-0.016 -1.4025,-0.96475 -2.7462,-2.10808 z m -9.1453,-2.49843 c 0.7922,-0.20645 1.8916,-0.19288 2.4431,0.0302 0.5512,0.22307 -0.098,0.39198 -1.4407,0.37538 -1.3437,-0.0166 -1.7945,-0.19909 -1.0024,-0.40555 z m -275.3407,-22.24716 c 1.4025,-34.18886 12.5969,-46.99312 32.2834,-36.92516 8.2919,4.24066 13.5996,21.67241 9.1373,30.00993 -1.8894,3.53056 -0.8008,5.67651 3.0201,5.95378 5.6875,0.41273 9.1111,-3.38191 5.646,-6.25783 -0.7719,-0.64064 -1.2354,-3.97695 -1.5435,-11.11409 -1.1889,-27.52713 -32.1326,-39.57074 -48.0312,-18.6941 -7.4381,9.76718 -10.7681,50.46615 -4.0837,49.91294 3.0536,-0.25273 3.0536,-0.25273 3.5716,-12.88547 z"
           id="path5102"
           inkscape:connector-curvature="0" />
        <path
           sodipodi:nodetypes="ccssscscccsccsscccccccsccccccccscsccscsccscscsssssccccccscsc"
           style="fill:#383838;stroke-width:2.62083411"
           d="m 2215.2017,-233.03841 c -12.5387,-0.4002 -15.4776,-0.72728 -17.3039,-1.92586 -1.881,-1.2346 -2.1996,-1.2641 -2.1996,-0.20359 0,4.25966 -55.2637,-3.35833 -71.129,-9.805 -22.0902,-8.97608 -24.3409,-27.34297 -4.5537,-37.16164 13.2339,-6.56685 22.0308,-8.02227 32.6891,-5.40833 7.1644,1.75705 7.1644,1.75705 7.1644,7.28062 0,3.03796 -0.3219,5.72262 -0.7158,5.96591 -0.3937,0.24329 -0.5334,2.05864 -0.3109,4.03412 0.3497,3.1012 0.1755,3.66437 -1.2698,4.12331 -10.0107,3.17732 -7.9779,12.15588 2.9829,13.17458 15.0706,1.40069 21.7806,-4.18025 14.3502,-11.9359 -2.1135,-2.20579 -2.1615,-2.45005 -1.24,-6.29054 2.4913,-10.38551 4.9344,-11.83012 17.554,-10.37968 39.8207,4.57684 126.9286,6.26595 168.5595,3.26854 19.6109,-1.41196 28.6004,-2.23958 36.879,-3.39518 10.3175,-1.44027 11.3996,-1.10684 13.6423,4.20448 2.3828,5.64226 2.3618,9.87873 -0.058,11.94454 -4.4494,3.79804 -5.1388,8.33005 -1.7011,11.18328 1.1292,0.93701 8.5953,1.37937 17.3999,1.03092 7.1543,-0.28311 8.8935,-5.70724 3.4436,-10.73864 -4.1425,-3.82439 -4.1296,-22.08243 0.031,-24.17575 9.008,-4.54726 35.5682,5.90667 41.3256,16.26544 3.0875,5.55509 1.9829,15.84825 -1.6687,15.55011 -1.0307,-0.0841 -1.256,0.34166 -0.9104,1.71888 1.3665,5.44477 -20.4581,14.26644 -43.2251,17.47198 -31.3439,4.41309 -131.4285,7.0209 -130.4815,3.39983 0.3909,-1.49443 0.3235,-1.49784 -2.1442,-0.10809 -2.756,1.55197 -42.36,2.02029 -77.0957,0.91165 z m 82.6909,-4.96071 c 0.8106,-0.89572 1.2904,-1.62859 1.0667,-1.62859 -0.2247,0 -1.0704,0.73287 -1.8811,1.62859 -0.8106,0.89573 -1.2907,1.6286 -1.0667,1.6286 0.2247,0 1.0704,-0.73287 1.8811,-1.6286 z m 6.5142,-6.51438 c 0.8106,-0.89572 1.2907,-1.62859 1.0667,-1.62859 -0.2247,0 -1.0701,0.73287 -1.8808,1.62859 -0.8106,0.89573 -1.2908,1.6286 -1.0667,1.6286 0.2247,0 1.0704,-0.73287 1.8808,-1.6286 z m 6.5144,-6.51438 c 0.8107,-0.89573 1.2908,-1.62859 1.0668,-1.62859 -0.2247,0 -1.0705,0.73286 -1.8811,1.62859 -0.8107,0.89573 -1.2905,1.6286 -1.0667,1.6286 0.2246,0 1.0704,-0.73287 1.881,-1.6286 z m 6.5145,-6.51438 c 0.8107,-0.89573 1.2905,-1.6286 1.0667,-1.6286 -0.2246,0 -1.0704,0.73287 -1.881,1.6286 -0.8107,0.89573 -1.2908,1.6286 -1.0667,1.6286 0.2246,0 1.0704,-0.73287 1.881,-1.6286 z m 146.1664,-3.51199 c 0,-0.14013 -1.191,-1.33105 -2.6464,-2.64647 -2.6465,-2.39167 -2.6465,-2.39167 -0.2555,0.2548 2.2295,2.46688 2.9013,3.02076 2.9013,2.39166 z m -139.6522,-3.00239 c 0.8107,-0.89573 1.2908,-1.6286 1.0667,-1.6286 -0.2247,0 -1.0701,0.73287 -1.8807,1.6286 -0.8107,0.89573 -1.2908,1.62859 -1.0668,1.62859 0.2247,0 1.0705,-0.73286 1.8808,-1.62859 z"
           id="path5104"
           inkscape:connector-curvature="0" />
      </g>
    </g>
  </g>
</svg>
