<?xml version="1.0" encoding="UTF-8" standalone="no"?>
<!-- Created with Inkscape (http://www.inkscape.org/) -->

<svg
   xmlns:dc="http://purl.org/dc/elements/1.1/"
   xmlns:cc="http://creativecommons.org/ns#"
   xmlns:rdf="http://www.w3.org/1999/02/22-rdf-syntax-ns#"
   xmlns:svg="http://www.w3.org/2000/svg"
   xmlns="http://www.w3.org/2000/svg"
   xmlns:sodipodi="http://sodipodi.sourceforge.net/DTD/sodipodi-0.dtd"
   xmlns:inkscape="http://www.inkscape.org/namespaces/inkscape"
   width="351.76999"
   height="327.00699"
   viewBox="0 0 93.072474 86.520605"
   version="1.1"
   id="svg3946"
   inkscape:version="0.92.4 (5da689c313, 2019-01-14)"
   sodipodi:docname="vector_experiece.svg">
  <defs
     id="defs3940">
    <clipPath
       clipPathUnits="userSpaceOnUse"
       id="clipPath2328">
      <rect
         rx="4.0349584"
         style="opacity:1;fill:#3d76ca;fill-opacity:1;fill-rule:nonzero;stroke:none;stroke-width:52.91666412;stroke-linecap:round;stroke-miterlimit:4;stroke-dasharray:none;stroke-dashoffset:0;stroke-opacity:0.99607843;paint-order:normal"
         id="rect2330"
         width="95.549629"
         height="148.76715"
         x="-1030.1995"
         y="456.05017"
         ry="4.0349584" />
    </clipPath>
    <clipPath
       clipPathUnits="userSpaceOnUse"
       id="clipPath2324">
      <rect
         rx="4.0349584"
         style="opacity:1;fill:#3d76ca;fill-opacity:1;fill-rule:nonzero;stroke:none;stroke-width:53.78142166;stroke-linecap:round;stroke-miterlimit:4;stroke-dasharray:none;stroke-dashoffset:0;stroke-opacity:0.99607843;paint-order:normal"
         id="rect2326"
         width="76.079025"
         height="272.93909"
         x="-820.27081"
         y="836.70294"
         ry="4.0349584"
         transform="matrix(0.45970085,0.88807383,-0.74456065,0.66755482,0,0)" />
    </clipPath>
    <clipPath
       clipPathUnits="userSpaceOnUse"
       id="clipPath2320">
      <rect
         rx="4.0349584"
         style="opacity:1;fill:#3d76ca;fill-opacity:1;fill-rule:nonzero;stroke:none;stroke-width:53.78142166;stroke-linecap:round;stroke-miterlimit:4;stroke-dasharray:none;stroke-dashoffset:0;stroke-opacity:0.99607843;paint-order:normal"
         id="rect2322"
         width="76.079025"
         height="272.93909"
         x="-820.27081"
         y="836.70294"
         ry="4.0349584"
         transform="matrix(0.45970085,0.88807383,-0.74456065,0.66755482,0,0)" />
    </clipPath>
    <clipPath
       clipPathUnits="userSpaceOnUse"
       id="clipPath2316">
      <rect
         rx="4.0349584"
         style="opacity:1;fill:#3d76ca;fill-opacity:1;fill-rule:nonzero;stroke:none;stroke-width:53.78142166;stroke-linecap:round;stroke-miterlimit:4;stroke-dasharray:none;stroke-dashoffset:0;stroke-opacity:0.99607843;paint-order:normal"
         id="rect2318"
         width="76.079025"
         height="272.93909"
         x="-820.27081"
         y="836.70294"
         ry="4.0349584"
         transform="matrix(0.45970085,0.88807383,-0.74456065,0.66755482,0,0)" />
    </clipPath>
    <clipPath
       clipPathUnits="userSpaceOnUse"
       id="clipPath2312">
      <rect
         rx="4.0349584"
         style="opacity:1;fill:#3d76ca;fill-opacity:1;fill-rule:nonzero;stroke:none;stroke-width:53.78142166;stroke-linecap:round;stroke-miterlimit:4;stroke-dasharray:none;stroke-dashoffset:0;stroke-opacity:0.99607843;paint-order:normal"
         id="rect2314"
         width="76.079025"
         height="272.93909"
         x="-820.27081"
         y="836.70294"
         ry="4.0349584"
         transform="matrix(0.45970085,0.88807383,-0.74456065,0.66755482,0,0)" />
    </clipPath>
    <clipPath
       clipPathUnits="userSpaceOnUse"
       id="clipPath2328-3">
      <rect
         rx="4.0349584"
         style="opacity:1;fill:#3d76ca;fill-opacity:1;fill-rule:nonzero;stroke:none;stroke-width:52.91666412;stroke-linecap:round;stroke-miterlimit:4;stroke-dasharray:none;stroke-dashoffset:0;stroke-opacity:0.99607843;paint-order:normal"
         id="rect2330-6"
         width="95.549629"
         height="148.76715"
         x="-1030.1995"
         y="456.05017"
         ry="4.0349584" />
    </clipPath>
    <clipPath
       clipPathUnits="userSpaceOnUse"
       id="clipPath2324-7">
      <rect
         rx="4.0349584"
         style="opacity:1;fill:#3d76ca;fill-opacity:1;fill-rule:nonzero;stroke:none;stroke-width:53.78142166;stroke-linecap:round;stroke-miterlimit:4;stroke-dasharray:none;stroke-dashoffset:0;stroke-opacity:0.99607843;paint-order:normal"
         id="rect2326-5"
         width="76.079025"
         height="272.93909"
         x="-820.27081"
         y="836.70294"
         ry="4.0349584"
         transform="matrix(0.45970085,0.88807383,-0.74456065,0.66755482,0,0)" />
    </clipPath>
    <clipPath
       clipPathUnits="userSpaceOnUse"
       id="clipPath2320-3">
      <rect
         rx="4.0349584"
         style="opacity:1;fill:#3d76ca;fill-opacity:1;fill-rule:nonzero;stroke:none;stroke-width:53.78142166;stroke-linecap:round;stroke-miterlimit:4;stroke-dasharray:none;stroke-dashoffset:0;stroke-opacity:0.99607843;paint-order:normal"
         id="rect2322-5"
         width="76.079025"
         height="272.93909"
         x="-820.27081"
         y="836.70294"
         ry="4.0349584"
         transform="matrix(0.45970085,0.88807383,-0.74456065,0.66755482,0,0)" />
    </clipPath>
    <clipPath
       clipPathUnits="userSpaceOnUse"
       id="clipPath2316-6">
      <rect
         rx="4.0349584"
         style="opacity:1;fill:#3d76ca;fill-opacity:1;fill-rule:nonzero;stroke:none;stroke-width:53.78142166;stroke-linecap:round;stroke-miterlimit:4;stroke-dasharray:none;stroke-dashoffset:0;stroke-opacity:0.99607843;paint-order:normal"
         id="rect2318-2"
         width="76.079025"
         height="272.93909"
         x="-820.27081"
         y="836.70294"
         ry="4.0349584"
         transform="matrix(0.45970085,0.88807383,-0.74456065,0.66755482,0,0)" />
    </clipPath>
    <clipPath
       clipPathUnits="userSpaceOnUse"
       id="clipPath2312-9">
      <rect
         rx="4.0349584"
         style="opacity:1;fill:#3d76ca;fill-opacity:1;fill-rule:nonzero;stroke:none;stroke-width:53.78142166;stroke-linecap:round;stroke-miterlimit:4;stroke-dasharray:none;stroke-dashoffset:0;stroke-opacity:0.99607843;paint-order:normal"
         id="rect2314-1"
         width="76.079025"
         height="272.93909"
         x="-820.27081"
         y="836.70294"
         ry="4.0349584"
         transform="matrix(0.45970085,0.88807383,-0.74456065,0.66755482,0,0)" />
    </clipPath>
  </defs>
  <sodipodi:namedview
     id="base"
     pagecolor="#4d4d4d"
     bordercolor="#666666"
     borderopacity="1.0"
     inkscape:pageopacity="0"
     inkscape:pageshadow="2"
     inkscape:zoom="0.35"
     inkscape:cx="251.69549"
     inkscape:cy="61.739175"
     inkscape:document-units="px"
     inkscape:current-layer="layer1"
     showgrid="false"
     units="px"
     inkscape:pagecheckerboard="true"
     borderlayer="true"
     inkscape:showpageshadow="false"
     inkscape:window-width="960"
     inkscape:window-height="1016"
     inkscape:window-x="960"
     inkscape:window-y="27"
     inkscape:window-maximized="0" />
  <metadata
     id="metadata3943">
    <rdf:RDF>
      <cc:Work
         rdf:about="">
        <dc:format>image/svg+xml</dc:format>
        <dc:type
           rdf:resource="http://purl.org/dc/dcmitype/StillImage" />
        <dc:title></dc:title>
      </cc:Work>
    </rdf:RDF>
  </metadata>
  <g
     inkscape:label="Layer 1"
     inkscape:groupmode="layer"
     id="layer1"
     transform="translate(0,-210.47936)">
    <g
       id="g4783"
       transform="translate(-5.8485021,20.349828)">
      <g
         id="g3908"
         style="display:inline;opacity:0.98999999;stroke-width:1.12389326;enable-background:new"
         transform="matrix(0.89125324,0,0,0.88827771,1227.3397,-768.25618)">
        <g
           style="fill:#73839b;fill-opacity:1;stroke-width:4.46932602"
           transform="matrix(0.25146819,0,0,0.25146819,-1084.3267,729.50134)"
           id="g3886">
          <path
             style="opacity:1;fill:#73839b;fill-opacity:1;fill-rule:nonzero;stroke:none;stroke-width:236.50177002;stroke-linecap:round;stroke-miterlimit:4;stroke-dasharray:none;stroke-dashoffset:0;stroke-opacity:0.99607843;paint-order:normal"
             d="m -922.17354,1392.7749 c -0.98572,0 -1.97441,0.037 -2.96654,0.091 -16.22936,0.8926 -29.63903,6.581 -41.16919,17.4646 -12.17672,11.494 -18.84209,25.4464 -20.37419,42.6475 -0.78949,8.8633 -0.0618,19.1415 1.90168,26.8852 1.44565,5.6996 5.36954,14.4361 8.85935,19.7265 3.0292,4.592 11.53359,13.4163 15.68688,16.2767 1.80562,1.2435 3.21513,2.3276 3.13189,2.4097 -0.0846,0.082 -2.26762,0.9896 -4.85381,2.0162 -42.54713,16.8901 -71.99653,58.9053 -75.53553,107.7651 -0.6662,9.2002 -0.7392,21.9988 -0.7392,21.9988 0,0 36.5034,0.1518 44.36672,0.068 16.80707,-0.1556 65.92925,-0.4492 109.16064,-0.6503 l 78.60352,-0.3663 -0.36403,-12.1898 c -0.66526,-22.3397 -4.38297,-38.7479 -12.77005,-56.3618 -12.48891,-26.2282 -34.30218,-47.8547 -58.83446,-58.331 -3.28214,-1.4015 -6.74588,-2.8863 -7.69871,-3.2986 l -1.7326,-0.7495 2.56348,-1.6958 c 4.17755,-2.7646 12.37208,-11.0051 15.59588,-15.6824 5.54729,-8.0485 8.95693,-16.1282 10.7125,-25.3828 1.24617,-6.5691 1.23109,-23.4647 -0.0272,-30.0973 -5.79017,-30.5242 -32.96179,-52.7714 -63.51701,-52.5448 z"
             id="path3870"
             inkscape:connector-curvature="0"
             sodipodi:nodetypes="cccccccccccccccsccccccccc" />
          <g
             id="g3882"
             transform="matrix(1.168769,0,0,1.168769,150.12854,-311.67115)"
             style="fill:#73839b;fill-opacity:1;stroke-width:3.82395935">
            <path
               sodipodi:type="star"
               style="opacity:1;fill:#73839b;fill-opacity:1;fill-rule:nonzero;stroke:none;stroke-width:202.35116577;stroke-linecap:round;stroke-miterlimit:4;stroke-dasharray:none;stroke-dashoffset:0;stroke-opacity:0.99607843;paint-order:normal"
               id="path3872"
               sodipodi:sides="5"
               sodipodi:cx="-999.17236"
               sodipodi:cy="1726.9614"
               sodipodi:r1="39.340225"
               sodipodi:r2="19.670115"
               sodipodi:arg1="-1.5707963"
               sodipodi:arg2="-0.9424778"
               inkscape:flatsided="false"
               inkscape:rounded="0"
               inkscape:randomized="0"
               d="m -999.17236,1687.6212 11.5618,23.4268 25.85297,3.7566 -18.70738,18.2352 4.41621,25.7485 -23.1236,-12.1568 -23.12364,12.1568 4.4162,-25.7485 -18.7073,-18.2352 25.8529,-3.7566 z"
               inkscape:transform-center-x="5.1879034e-06"
               inkscape:transform-center-y="-3.7566777" />
            <path
               inkscape:transform-center-y="-3.7566777"
               inkscape:transform-center-x="-1.6466679e-05"
               d="m -835.7417,1687.6212 11.5618,23.4268 25.85298,3.7566 -18.70739,18.2352 4.41621,25.7485 -23.1236,-12.1568 -23.1236,12.1568 4.41621,-25.7485 -18.70739,-18.2352 25.85298,-3.7566 z"
               inkscape:randomized="0"
               inkscape:rounded="0"
               inkscape:flatsided="false"
               sodipodi:arg2="-0.9424778"
               sodipodi:arg1="-1.5707963"
               sodipodi:r2="19.670115"
               sodipodi:r1="39.340225"
               sodipodi:cy="1726.9614"
               sodipodi:cx="-835.7417"
               sodipodi:sides="5"
               id="path3874"
               style="opacity:1;fill:#73839b;fill-opacity:1;fill-rule:nonzero;stroke:none;stroke-width:202.35116577;stroke-linecap:round;stroke-miterlimit:4;stroke-dasharray:none;stroke-dashoffset:0;stroke-opacity:0.99607843;paint-order:normal"
               sodipodi:type="star" />
            <path
               inkscape:transform-center-y="-4.895838"
               inkscape:transform-center-x="-1.4279217e-05"
               d="m -917.45703,1694.2129 15.06778,30.5306 33.69257,4.8958 -24.38018,23.7648 5.75538,33.5565 -30.13555,-15.8432 -30.13556,15.8432 5.75538,-33.5565 -24.38017,-23.7648 33.69257,-4.8958 z"
               inkscape:randomized="0"
               inkscape:rounded="0"
               inkscape:flatsided="false"
               sodipodi:arg2="-0.9424778"
               sodipodi:arg1="-1.5707963"
               sodipodi:r2="25.634832"
               sodipodi:r1="51.269665"
               sodipodi:cy="1745.4825"
               sodipodi:cx="-917.45703"
               sodipodi:sides="5"
               id="path3876"
               style="opacity:1;fill:#73839b;fill-opacity:1;fill-rule:nonzero;stroke:none;stroke-width:202.35116577;stroke-linecap:round;stroke-miterlimit:4;stroke-dasharray:none;stroke-dashoffset:0;stroke-opacity:0.99607843;paint-order:normal"
               sodipodi:type="star" />
            <path
               inkscape:transform-center-y="-2.8041438"
               inkscape:transform-center-x="6.4616558e-05"
               d="m -1060.0553,1647.7732 8.6302,17.4867 19.2978,2.8042 -13.964,13.6115 3.2965,19.2198 -17.2605,-9.0743 -17.2605,9.0743 3.2965,-19.2198 -13.964,-13.6115 19.2978,-2.8042 z"
               inkscape:randomized="0"
               inkscape:rounded="0"
               inkscape:flatsided="false"
               sodipodi:arg2="-0.9424778"
               sodipodi:arg1="-1.5707963"
               sodipodi:r2="14.682628"
               sodipodi:r1="29.365253"
               sodipodi:cy="1677.1384"
               sodipodi:cx="-1060.0553"
               sodipodi:sides="5"
               id="path3878"
               style="opacity:1;fill:#73839b;fill-opacity:1;fill-rule:nonzero;stroke:none;stroke-width:202.35116577;stroke-linecap:round;stroke-miterlimit:4;stroke-dasharray:none;stroke-dashoffset:0;stroke-opacity:0.99607843;paint-order:normal"
               sodipodi:type="star" />
            <path
               sodipodi:type="star"
               style="opacity:1;fill:#73839b;fill-opacity:1;fill-rule:nonzero;stroke:none;stroke-width:202.35116577;stroke-linecap:round;stroke-miterlimit:4;stroke-dasharray:none;stroke-dashoffset:0;stroke-opacity:0.99607843;paint-order:normal"
               id="path3880"
               sodipodi:sides="5"
               sodipodi:cx="-774.8587"
               sodipodi:cy="1677.1384"
               sodipodi:r1="29.365253"
               sodipodi:r2="14.682628"
               sodipodi:arg1="-1.5707963"
               sodipodi:arg2="-0.9424778"
               inkscape:flatsided="false"
               inkscape:rounded="0"
               inkscape:randomized="0"
               d="m -774.8587,1647.7732 8.63023,17.4867 19.29778,2.8042 -13.964,13.6115 3.29645,19.2198 -17.26046,-9.0743 -17.26047,9.0743 3.29646,-19.2198 -13.96401,-13.6115 19.29778,-2.8042 z"
               inkscape:transform-center-x="-1.6384085e-05"
               inkscape:transform-center-y="-2.8041438" />
          </g>
          <path
             sodipodi:nodetypes="cccccccccccccccsccccccccc"
             inkscape:connector-curvature="0"
             id="path3884"
             d="m -922.17217,1419.424 c -0.78159,0 -1.56554,0.03 -2.35222,0.072 -12.8685,0.7079 -23.50123,5.2182 -32.64368,13.848 -9.6551,9.1138 -14.94017,20.1768 -16.15499,33.8158 -0.626,7.0279 -0.049,15.1777 1.50786,21.3177 1.14629,4.5194 4.25759,11.4467 7.02472,15.6416 2.40189,3.641 9.14516,10.6379 12.43836,12.906 1.43171,0.9859 2.54933,1.8456 2.48333,1.9106 -0.067,0.065 -1.79803,0.7847 -3.84866,1.5987 -33.73626,13.3924 -57.08715,46.7069 -59.89325,85.4486 -0.5283,7.2951 -0.5861,17.4431 -0.5861,17.4431 0,0 28.94406,0.12 35.179,0.053 13.32658,-0.1239 52.2763,-0.3562 86.55514,-0.5156 l 62.32592,-0.2904 -0.28865,-9.6656 c -0.5275,-17.7134 -3.47532,-30.7238 -10.12557,-44.6901 -9.90264,-20.7968 -27.19871,-37.9447 -46.65073,-46.2515 -2.60247,-1.1113 -5.34891,-2.2886 -6.10442,-2.6155 l -1.3738,-0.5943 2.03261,-1.3447 c 3.31245,-2.192 9.81001,-8.7261 12.36621,-12.4347 4.39853,-6.3818 7.10209,-12.7884 8.4941,-20.1265 0.98811,-5.2087 0.97616,-18.6055 -0.0215,-23.8645 -4.59112,-24.2032 -26.13591,-41.8434 -50.36361,-41.6636 z"
             style="opacity:1;fill:#73839b;fill-opacity:1;fill-rule:nonzero;stroke:none;stroke-width:236.50177002;stroke-linecap:round;stroke-miterlimit:4;stroke-dasharray:none;stroke-dashoffset:0;stroke-opacity:0.99607843;paint-order:normal" />
        </g>
        <path
           style="opacity:1;fill:#224579;fill-opacity:1;fill-rule:nonzero;stroke:none;stroke-width:59.47267151;stroke-linecap:round;stroke-miterlimit:4;stroke-dasharray:none;stroke-dashoffset:0;stroke-opacity:0.99607843;paint-order:normal"
           d="m -1320.4147,1078.9264 c -0.2479,0 -0.4965,0.01 -0.746,0.023 -4.0812,0.2245 -7.4533,1.6549 -10.3527,4.3918 -3.0621,2.8904 -4.7382,6.3989 -5.1235,10.7245 -0.1985,2.2288 -0.015,4.8135 0.4782,6.7608 0.3635,1.4332 1.3503,3.6302 2.2279,4.9605 0.7617,1.1548 2.9003,3.3738 3.9447,4.0931 0.4541,0.3127 0.8085,0.5853 0.7876,0.606 -0.021,0.021 -0.5703,0.2488 -1.2206,0.507 -10.6993,4.2473 -18.1048,14.8128 -18.9948,27.0995 -0.1675,2.3135 -0.1859,5.532 -0.1859,5.532 0,0 9.1795,0.038 11.1568,0.017 4.2265,-0.039 16.5792,-0.113 27.4505,-0.1636 l 19.7663,-0.092 -0.092,-3.0653 c -0.1673,-5.6177 -1.1022,-9.7439 -3.2112,-14.1732 -3.1406,-6.5956 -8.626,-12.0339 -14.795,-14.6684 -0.8254,-0.3524 -1.6964,-0.7258 -1.936,-0.8295 l -0.4357,-0.1885 0.6446,-0.4264 c 1.0505,-0.6952 3.1112,-2.7674 3.9219,-3.9436 1.395,-2.024 2.2524,-4.0558 2.6938,-6.383 0.3134,-1.6519 0.3096,-5.9006 -0.01,-7.5685 -1.456,-7.6759 -8.2888,-13.2703 -15.9725,-13.2134 z"
           id="path3888"
           inkscape:connector-curvature="0"
           sodipodi:nodetypes="cccccccccccccccsccccccccc" />
        <path
           inkscape:transform-center-y="-3.7566777"
           inkscape:transform-center-x="5.1879034e-06"
           d="m -1344.4298,1146.3182 3.3981,6.8853 7.5984,1.1041 -5.4983,5.3595 1.298,7.5677 -6.7962,-3.573 -6.7962,3.573 1.2979,-7.5677 -5.4982,-5.3595 7.5984,-1.1041 z"
           inkscape:randomized="0"
           inkscape:rounded="0"
           inkscape:flatsided="false"
           sodipodi:arg2="-0.9424778"
           sodipodi:arg1="-1.5707963"
           sodipodi:r2="5.7812085"
           sodipodi:r1="11.562416"
           sodipodi:cy="1157.8806"
           sodipodi:cx="-1344.4298"
           sodipodi:sides="5"
           id="path3890"
           style="opacity:1;fill:#224579;fill-opacity:1;fill-rule:nonzero;stroke:none;stroke-width:59.47267151;stroke-linecap:round;stroke-miterlimit:4;stroke-dasharray:none;stroke-dashoffset:0;stroke-opacity:0.99607843;paint-order:normal"
           sodipodi:type="star" />
        <path
           sodipodi:type="star"
           style="opacity:1;fill:#224579;fill-opacity:1;fill-rule:nonzero;stroke:none;stroke-width:59.47267151;stroke-linecap:round;stroke-miterlimit:4;stroke-dasharray:none;stroke-dashoffset:0;stroke-opacity:0.99607843;paint-order:normal"
           id="path3892"
           sodipodi:sides="5"
           sodipodi:cx="-1296.3962"
           sodipodi:cy="1157.8806"
           sodipodi:r1="11.562416"
           sodipodi:r2="5.7812085"
           sodipodi:arg1="-1.5707963"
           sodipodi:arg2="-0.9424778"
           inkscape:flatsided="false"
           inkscape:rounded="0"
           inkscape:randomized="0"
           d="m -1296.3962,1146.3182 3.3981,6.8853 7.5984,1.1041 -5.4983,5.3595 1.298,7.5677 -6.7962,-3.573 -6.7963,3.573 1.298,-7.5677 -5.4983,-5.3595 7.5985,-1.1041 z"
           inkscape:transform-center-x="-1.6466679e-05"
           inkscape:transform-center-y="-3.7566777" />
        <path
           sodipodi:type="star"
           style="opacity:1;fill:#224579;fill-opacity:1;fill-rule:nonzero;stroke:none;stroke-width:59.47267151;stroke-linecap:round;stroke-miterlimit:4;stroke-dasharray:none;stroke-dashoffset:0;stroke-opacity:0.99607843;paint-order:normal"
           id="path3894"
           sodipodi:sides="5"
           sodipodi:cx="-1320.413"
           sodipodi:cy="1163.3241"
           sodipodi:r1="15.068576"
           sodipodi:r2="7.5342879"
           sodipodi:arg1="-1.5707963"
           sodipodi:arg2="-0.9424778"
           inkscape:flatsided="false"
           inkscape:rounded="0"
           inkscape:randomized="0"
           d="m -1320.413,1148.2555 4.4286,8.9732 9.9025,1.439 -7.1655,6.9846 1.6915,9.8625 -8.8571,-4.6564 -8.8571,4.6564 1.6916,-9.8625 -7.1655,-6.9846 9.9025,-1.439 z"
           inkscape:transform-center-x="-1.4279217e-05"
           inkscape:transform-center-y="-4.895838" />
        <path
           sodipodi:type="star"
           style="opacity:1;fill:#224579;fill-opacity:1;fill-rule:nonzero;stroke:none;stroke-width:59.47267151;stroke-linecap:round;stroke-miterlimit:4;stroke-dasharray:none;stroke-dashoffset:0;stroke-opacity:0.99607843;paint-order:normal"
           id="path3896"
           sodipodi:sides="5"
           sodipodi:cx="-1362.3239"
           sodipodi:cy="1143.2372"
           sodipodi:r1="8.6306896"
           sodipodi:r2="4.3153448"
           sodipodi:arg1="-1.5707963"
           sodipodi:arg2="-0.9424778"
           inkscape:flatsided="false"
           inkscape:rounded="0"
           inkscape:randomized="0"
           d="m -1362.3239,1134.6065 2.5365,5.1395 5.6718,0.8242 -4.1041,4.0005 0.9688,5.6489 -5.073,-2.6671 -5.0729,2.6671 0.9688,-5.6489 -4.1041,-4.0005 5.6718,-0.8242 z"
           inkscape:transform-center-x="6.4616558e-05"
           inkscape:transform-center-y="-2.8041438" />
        <path
           inkscape:transform-center-y="-2.8041438"
           inkscape:transform-center-x="-1.6384085e-05"
           d="m -1278.5021,1134.6065 2.5365,5.1395 5.6718,0.8242 -4.1041,4.0005 0.9688,5.6489 -5.073,-2.6671 -5.073,2.6671 0.9689,-5.6489 -4.1041,-4.0005 5.6717,-0.8242 z"
           inkscape:randomized="0"
           inkscape:rounded="0"
           inkscape:flatsided="false"
           sodipodi:arg2="-0.9424778"
           sodipodi:arg1="-1.5707963"
           sodipodi:r2="4.3153448"
           sodipodi:r1="8.6306896"
           sodipodi:cy="1143.2372"
           sodipodi:cx="-1278.5021"
           sodipodi:sides="5"
           id="path3898"
           style="opacity:1;fill:#224579;fill-opacity:1;fill-rule:nonzero;stroke:none;stroke-width:59.47267151;stroke-linecap:round;stroke-miterlimit:4;stroke-dasharray:none;stroke-dashoffset:0;stroke-opacity:0.99607843;paint-order:normal"
           sodipodi:type="star" />
        <path
           sodipodi:nodetypes="cccccccccccccccsccccccccc"
           inkscape:connector-curvature="0"
           id="path3900"
           d="m -1320.4144,1085.6278 c -0.1965,0 -0.3936,0.01 -0.5915,0.018 -3.236,0.178 -5.9098,1.3122 -8.2088,3.4824 -2.428,2.2918 -3.757,5.0738 -4.0625,8.5035 -0.1574,1.7673 -0.012,3.8168 0.3792,5.3608 0.2882,1.1365 1.0706,2.8785 1.7665,3.9333 0.604,0.9156 2.2997,2.6751 3.1278,3.2455 0.3601,0.2479 0.6411,0.4641 0.6245,0.4804 -0.017,0.016 -0.4521,0.1974 -0.9678,0.4021 -8.4836,3.3677 -14.3556,11.7453 -15.0612,21.4876 -0.1329,1.8345 -0.1474,4.3864 -0.1474,4.3864 0,0 7.2785,0.03 8.8464,0.013 3.3512,-0.031 13.1458,-0.09 21.7658,-0.1297 l 15.673,-0.073 -0.073,-2.4306 c -0.1326,-4.4544 -0.8739,-7.7261 -2.5462,-11.2381 -2.4902,-5.2298 -6.8396,-9.5419 -11.7312,-11.6308 -0.6544,-0.2795 -1.3451,-0.5755 -1.5351,-0.6577 l -0.3454,-0.1495 0.5111,-0.3381 c 0.833,-0.5512 2.4669,-2.1944 3.1097,-3.127 1.1061,-1.6048 1.786,-3.2158 2.136,-5.0611 0.2485,-1.3099 0.2455,-4.6787 -0.01,-6.0012 -1.1545,-6.0863 -6.5724,-10.5223 -12.6648,-10.4771 z"
           style="opacity:1;fill:#83a7dc;fill-opacity:1;fill-rule:nonzero;stroke:none;stroke-width:59.47267151;stroke-linecap:round;stroke-miterlimit:4;stroke-dasharray:none;stroke-dashoffset:0;stroke-opacity:0.99607843;paint-order:normal" />
        <circle
           style="opacity:1;fill:#c7d8f0;fill-opacity:1;fill-rule:nonzero;stroke:none;stroke-width:59.47267914;stroke-linecap:round;stroke-miterlimit:4;stroke-dasharray:none;stroke-dashoffset:0;stroke-opacity:0.99607843;paint-order:normal"
           id="circle3902"
           cx="-1318.3177"
           cy="1095.2913"
           r="6.5929327" />
        <ellipse
           cy="1215.6628"
           cx="-1773.2128"
           id="ellipse3904"
           style="opacity:1;fill:#c7d8f0;fill-opacity:1;fill-rule:nonzero;stroke:none;stroke-width:61.87417221;stroke-linecap:round;stroke-miterlimit:4;stroke-dasharray:none;stroke-dashoffset:0;stroke-opacity:0.99607843;paint-order:normal"
           rx="5.5689936"
           ry="8.3254795"
           transform="matrix(1,0,0.38267923,0.92388127,0,0)" />
        <path
           inkscape:transform-center-y="-3.395546"
           inkscape:transform-center-x="-1.064087e-05"
           d="m -1320.413,1152.8744 3.0714,6.2233 6.8679,0.9979 -4.9697,4.8442 1.1732,6.8401 -6.1428,-3.2295 -6.1427,3.2295 1.1731,-6.8401 -4.9696,-4.8442 6.8678,-0.9979 z"
           inkscape:randomized="0"
           inkscape:rounded="0"
           inkscape:flatsided="false"
           sodipodi:arg2="-0.9424778"
           sodipodi:arg1="-1.5707963"
           sodipodi:r2="5.2253609"
           sodipodi:r1="10.450722"
           sodipodi:cy="1163.3251"
           sodipodi:cx="-1320.413"
           sodipodi:sides="5"
           id="path3906"
           style="opacity:1;fill:#83a7dc;fill-opacity:1;fill-rule:nonzero;stroke:none;stroke-width:59.47267151;stroke-linecap:round;stroke-miterlimit:4;stroke-dasharray:none;stroke-dashoffset:0;stroke-opacity:0.99607843;paint-order:normal"
           sodipodi:type="star" />
      </g>
    </g>
  </g>
</svg>
