<?xml version="1.0" encoding="UTF-8" standalone="no"?>
<!-- Created with Inkscape (http://www.inkscape.org/) -->

<svg
   xmlns:dc="http://purl.org/dc/elements/1.1/"
   xmlns:cc="http://creativecommons.org/ns#"
   xmlns:rdf="http://www.w3.org/1999/02/22-rdf-syntax-ns#"
   xmlns:svg="http://www.w3.org/2000/svg"
   xmlns="http://www.w3.org/2000/svg"
   xmlns:sodipodi="http://sodipodi.sourceforge.net/DTD/sodipodi-0.dtd"
   xmlns:inkscape="http://www.inkscape.org/namespaces/inkscape"
   width="346.01099"
   height="465.022"
   viewBox="0 0 91.548738 123.03708"
   version="1.1"
   id="svg3946"
   inkscape:version="0.92.4 (5da689c313, 2019-01-14)"
   sodipodi:docname="vector_sink.svg">
  <defs
     id="defs3940">
    <clipPath
       clipPathUnits="userSpaceOnUse"
       id="clipPath2328">
      <rect
         rx="4.0349584"
         style="opacity:1;fill:#3d76ca;fill-opacity:1;fill-rule:nonzero;stroke:none;stroke-width:52.91666412;stroke-linecap:round;stroke-miterlimit:4;stroke-dasharray:none;stroke-dashoffset:0;stroke-opacity:0.99607843;paint-order:normal"
         id="rect2330"
         width="95.549629"
         height="148.76715"
         x="-1030.1995"
         y="456.05017"
         ry="4.0349584" />
    </clipPath>
    <clipPath
       clipPathUnits="userSpaceOnUse"
       id="clipPath2324">
      <rect
         rx="4.0349584"
         style="opacity:1;fill:#3d76ca;fill-opacity:1;fill-rule:nonzero;stroke:none;stroke-width:53.78142166;stroke-linecap:round;stroke-miterlimit:4;stroke-dasharray:none;stroke-dashoffset:0;stroke-opacity:0.99607843;paint-order:normal"
         id="rect2326"
         width="76.079025"
         height="272.93909"
         x="-820.27081"
         y="836.70294"
         ry="4.0349584"
         transform="matrix(0.45970085,0.88807383,-0.74456065,0.66755482,0,0)" />
    </clipPath>
    <clipPath
       clipPathUnits="userSpaceOnUse"
       id="clipPath2320">
      <rect
         rx="4.0349584"
         style="opacity:1;fill:#3d76ca;fill-opacity:1;fill-rule:nonzero;stroke:none;stroke-width:53.78142166;stroke-linecap:round;stroke-miterlimit:4;stroke-dasharray:none;stroke-dashoffset:0;stroke-opacity:0.99607843;paint-order:normal"
         id="rect2322"
         width="76.079025"
         height="272.93909"
         x="-820.27081"
         y="836.70294"
         ry="4.0349584"
         transform="matrix(0.45970085,0.88807383,-0.74456065,0.66755482,0,0)" />
    </clipPath>
    <clipPath
       clipPathUnits="userSpaceOnUse"
       id="clipPath2316">
      <rect
         rx="4.0349584"
         style="opacity:1;fill:#3d76ca;fill-opacity:1;fill-rule:nonzero;stroke:none;stroke-width:53.78142166;stroke-linecap:round;stroke-miterlimit:4;stroke-dasharray:none;stroke-dashoffset:0;stroke-opacity:0.99607843;paint-order:normal"
         id="rect2318"
         width="76.079025"
         height="272.93909"
         x="-820.27081"
         y="836.70294"
         ry="4.0349584"
         transform="matrix(0.45970085,0.88807383,-0.74456065,0.66755482,0,0)" />
    </clipPath>
    <clipPath
       clipPathUnits="userSpaceOnUse"
       id="clipPath2312">
      <rect
         rx="4.0349584"
         style="opacity:1;fill:#3d76ca;fill-opacity:1;fill-rule:nonzero;stroke:none;stroke-width:53.78142166;stroke-linecap:round;stroke-miterlimit:4;stroke-dasharray:none;stroke-dashoffset:0;stroke-opacity:0.99607843;paint-order:normal"
         id="rect2314"
         width="76.079025"
         height="272.93909"
         x="-820.27081"
         y="836.70294"
         ry="4.0349584"
         transform="matrix(0.45970085,0.88807383,-0.74456065,0.66755482,0,0)" />
    </clipPath>
    <clipPath
       clipPathUnits="userSpaceOnUse"
       id="clipPath2328-3">
      <rect
         rx="4.0349584"
         style="opacity:1;fill:#3d76ca;fill-opacity:1;fill-rule:nonzero;stroke:none;stroke-width:52.91666412;stroke-linecap:round;stroke-miterlimit:4;stroke-dasharray:none;stroke-dashoffset:0;stroke-opacity:0.99607843;paint-order:normal"
         id="rect2330-6"
         width="95.549629"
         height="148.76715"
         x="-1030.1995"
         y="456.05017"
         ry="4.0349584" />
    </clipPath>
    <clipPath
       clipPathUnits="userSpaceOnUse"
       id="clipPath2324-7">
      <rect
         rx="4.0349584"
         style="opacity:1;fill:#3d76ca;fill-opacity:1;fill-rule:nonzero;stroke:none;stroke-width:53.78142166;stroke-linecap:round;stroke-miterlimit:4;stroke-dasharray:none;stroke-dashoffset:0;stroke-opacity:0.99607843;paint-order:normal"
         id="rect2326-5"
         width="76.079025"
         height="272.93909"
         x="-820.27081"
         y="836.70294"
         ry="4.0349584"
         transform="matrix(0.45970085,0.88807383,-0.74456065,0.66755482,0,0)" />
    </clipPath>
    <clipPath
       clipPathUnits="userSpaceOnUse"
       id="clipPath2320-3">
      <rect
         rx="4.0349584"
         style="opacity:1;fill:#3d76ca;fill-opacity:1;fill-rule:nonzero;stroke:none;stroke-width:53.78142166;stroke-linecap:round;stroke-miterlimit:4;stroke-dasharray:none;stroke-dashoffset:0;stroke-opacity:0.99607843;paint-order:normal"
         id="rect2322-5"
         width="76.079025"
         height="272.93909"
         x="-820.27081"
         y="836.70294"
         ry="4.0349584"
         transform="matrix(0.45970085,0.88807383,-0.74456065,0.66755482,0,0)" />
    </clipPath>
    <clipPath
       clipPathUnits="userSpaceOnUse"
       id="clipPath2316-6">
      <rect
         rx="4.0349584"
         style="opacity:1;fill:#3d76ca;fill-opacity:1;fill-rule:nonzero;stroke:none;stroke-width:53.78142166;stroke-linecap:round;stroke-miterlimit:4;stroke-dasharray:none;stroke-dashoffset:0;stroke-opacity:0.99607843;paint-order:normal"
         id="rect2318-2"
         width="76.079025"
         height="272.93909"
         x="-820.27081"
         y="836.70294"
         ry="4.0349584"
         transform="matrix(0.45970085,0.88807383,-0.74456065,0.66755482,0,0)" />
    </clipPath>
    <clipPath
       clipPathUnits="userSpaceOnUse"
       id="clipPath2312-9">
      <rect
         rx="4.0349584"
         style="opacity:1;fill:#3d76ca;fill-opacity:1;fill-rule:nonzero;stroke:none;stroke-width:53.78142166;stroke-linecap:round;stroke-miterlimit:4;stroke-dasharray:none;stroke-dashoffset:0;stroke-opacity:0.99607843;paint-order:normal"
         id="rect2314-1"
         width="76.079025"
         height="272.93909"
         x="-820.27081"
         y="836.70294"
         ry="4.0349584"
         transform="matrix(0.45970085,0.88807383,-0.74456065,0.66755482,0,0)" />
    </clipPath>
  </defs>
  <sodipodi:namedview
     id="base"
     pagecolor="#4d4d4d"
     bordercolor="#666666"
     borderopacity="1.0"
     inkscape:pageopacity="0"
     inkscape:pageshadow="2"
     inkscape:zoom="0.49497475"
     inkscape:cx="144.15176"
     inkscape:cy="196.77338"
     inkscape:document-units="px"
     inkscape:current-layer="layer1"
     showgrid="false"
     units="px"
     inkscape:pagecheckerboard="true"
     borderlayer="true"
     inkscape:showpageshadow="false"
     inkscape:window-width="960"
     inkscape:window-height="1016"
     inkscape:window-x="960"
     inkscape:window-y="27"
     inkscape:window-maximized="0" />
  <metadata
     id="metadata3943">
    <rdf:RDF>
      <cc:Work
         rdf:about="">
        <dc:format>image/svg+xml</dc:format>
        <dc:type
           rdf:resource="http://purl.org/dc/dcmitype/StillImage" />
        <dc:title></dc:title>
      </cc:Work>
    </rdf:RDF>
  </metadata>
  <g
     inkscape:label="Layer 1"
     inkscape:groupmode="layer"
     id="layer1"
     transform="translate(0,-173.96289)">
    <g
       style="display:inline;opacity:0.98999999;enable-background:new"
       id="g3728"
       transform="translate(838.73774,-1772.6169)">
      <path
         inkscape:export-ydpi="96"
         inkscape:export-xdpi="96"
         sodipodi:nodetypes="sssssssss"
         inkscape:connector-curvature="0"
         id="path3688"
         d="m -768.53662,1949.0192 11.1122,-2.2329 c 13.8013,-2.7733 10.3008,23.1019 8.3668,34.3266 l -5.1489,29.8824 c -1.934,11.2248 -29.4095,34.3267 -43.6438,34.3267 h -29.5025 c -14.2343,0 -13.1307,-31.8838 -7.4317,-42.2659 l 12.3179,-22.4394 c 5.6992,-10.3821 40.1288,-28.8243 53.93,-31.5975 z"
         style="opacity:1;fill:#67a0f3;fill-opacity:1;fill-rule:nonzero;stroke:none;stroke-width:52.91666412;stroke-linecap:round;stroke-miterlimit:4;stroke-dasharray:none;stroke-dashoffset:0;stroke-opacity:0.99607843;paint-order:normal" />
      <rect
         inkscape:export-ydpi="96"
         inkscape:export-xdpi="96"
         rx="4.0349584"
         ry="4.0349584"
         y="1949.0192"
         x="-796.53534"
         height="43.592911"
         width="27.998695"
         id="rect3690"
         style="opacity:1;fill:#305283;fill-opacity:1;fill-rule:nonzero;stroke:none;stroke-width:52.91665649;stroke-linecap:round;stroke-miterlimit:4;stroke-dasharray:none;stroke-dashoffset:0;stroke-opacity:0.99607843;paint-order:normal" />
      <g
         inkscape:export-ydpi="96"
         inkscape:export-xdpi="96"
         style="stroke-width:4.72120571"
         id="g3700"
         transform="matrix(0.21181031,0,0,0.21181031,-1186.4344,2104.1455)">
        <path
           sodipodi:nodetypes="cccsccccccccccccccccscccccccscccccccccccsccccccc"
           style="fill:#1f4478;fill-opacity:0.99215686;stroke-width:4.72120571"
           d="m 2003.1243,-185.26625 c 32.444,-0.78896 29.0586,1.20845 29.8274,-17.60027 l 0.8824,-116.20388 c -0.614,-39.09964 -0.614,-39.09964 2.8576,-39.09964 5.4944,0 5.8455,-0.9578 5.8295,-15.90484 -0.033,-16.53915 1.0666,-14.64277 -20.8278,-36.42344 -29.7826,-29.62786 -24.2944,-27.07585 -58.3451,-27.1295 -20.3705,-0.032 -23.9586,-0.22766 -24.3812,-1.3288 -0.2711,-0.71015 -1.6767,-2.00943 -3.1202,-2.88731 -2.6078,-1.58582 -2.6136,-1.60626 -0.8932,-3.16315 2.2521,-2.0382 2.1842,-2.89228 -0.4487,-5.6405 -2.1803,-2.27569 -2.1803,-2.27569 0,-4.62822 2.6159,-2.8225 2.7233,-4.09651 0.514,-6.09582 -1.9187,-1.73637 -4.2612,-1.28054 -6.5786,1.28001 -1.5526,1.71567 -1.5716,1.71295 -3.9461,-0.56189 -1.8201,-1.74375 -2.9115,-2.15393 -4.6022,-1.72956 -2.7887,0.69991 -3.0656,4.67155 -0.4883,7.00396 2.18,1.97304 2.18,3.21145 0,5.18449 -2.2325,2.02013 -2.1818,3.39846 0.2058,5.62292 1.934,1.80187 1.934,1.80187 -4.9683,1.54579 -6.9026,-0.25607 -6.9026,-0.25607 -6.9026,-27.76121 0,-31.09869 0.6757,-33.43868 9.3222,-32.27896 5.6597,0.75915 10.8504,8.58891 7.886,11.89567 -1.8876,2.10575 -1.5917,8.31459 0.4484,9.40645 7.6629,4.10095 18.4604,-2.82249 12.9679,-8.31498 -0.5029,-0.50285 -1.4605,-3.5248 -2.128,-6.71541 -2.7632,-13.2066 -13.0201,-20.53981 -24.9838,-17.86242 -13.787,3.08536 -16.7301,12.75437 -15.6109,51.28492 0.596,20.52191 0.596,20.52191 -5.966,20.52191 -6.562,0 -6.562,0 -4.8341,-1.72816 2.1976,-2.19753 2.1763,-3.51752 -0.1012,-6.415 -1.8308,-2.32766 -1.8308,-2.32766 0,-4.2766 2.2041,-2.34587 2.3014,-3.774 0.401,-5.87391 -1.9092,-2.10972 -3.0656,-1.99271 -5.4565,0.55214 -2.0029,2.13231 -2.0029,2.13231 -4.5372,0 -5.0454,-4.24544 -9.9124,0.0972 -5.3945,4.81312 2.4412,2.54781 2.4412,2.54781 0.6855,4.49781 -3.0124,3.34545 -3.1587,4.13105 -1.1656,6.25269 1.8926,2.01455 1.8926,2.01455 0.069,2.59381 -1.0039,0.31858 -2.4428,1.52185 -3.1975,2.67391 -1.3727,2.09468 -1.3727,2.09468 -27.9277,2.09468 -30.6774,0 -26.4531,-2.08856 -56.7386,28.05265 -20.22,20.12371 -19.6021,19.05418 -19.979,34.59318 -0.3497,14.4314 0.2188,16.19532 5.4197,16.84957 3.4349,0.43204 3.4349,0.43204 3.3781,9.93692 -0.7913,131.79887 0.1437,161.82964 5.0558,162.1335 19.7109,1.21971 186.757,1.83088 227.7757,0.83337 z"
           id="path3692"
           inkscape:connector-curvature="0" />
        <path
           sodipodi:nodetypes="ccccccscsccccccccccssscscccccccccccccccccsccccccccccccccccccccccscccscscccccccccccccccccccccccscccsssssccsccscccccsccsssc"
           style="fill:#3d76ca;fill-opacity:1;stroke-width:4.72120571"
           d="m 2008.2507,-186.11664 c 16.8572,-0.48912 22.0459,-0.90163 22.5991,-1.79666 1.5075,-2.43904 2.0748,-28.84022 2.1267,-98.97011 0.055,-72.58275 0.055,-72.58275 3.499,-72.86315 4.6375,-0.37744 4.7351,-0.65807 4.7505,-13.6529 0.033,-17.30038 1.6913,-14.38293 -21.4999,-37.52597 -28.5844,-28.52478 -21.9773,-25.38661 -54.1965,-25.742 -27.025,-0.29811 -27.025,-0.29811 -28.3865,-2.37622 -0.7488,-1.14297 -2.1427,-2.07812 -3.097,-2.07812 -2.6022,0 -3.2214,-2.65154 -0.9686,-4.14731 2.5248,-1.67638 2.3671,-3.06555 -0.6346,-5.59139 -2.5143,-2.1156 -2.5143,-2.1156 0.1209,-4.75196 1.6603,-1.66035 2.4412,-3.14481 2.1094,-4.00977 -0.9951,-2.59307 -4.3044,-1.19493 -6.5647,2.77361 -0.7377,1.29483 -1.1329,1.11787 -3.3255,-1.48872 -1.7126,-2.03556 -2.9396,-2.78515 -3.9347,-2.40334 -2.3501,0.90179 -1.7234,3.988 1.1408,5.61776 3.2027,1.82238 3.2027,1.99569 0,4.35961 -3.034,2.24315 -3.2391,3.60371 -0.8671,5.75039 2.8768,2.60349 0.7554,3.89112 -6.4105,3.89112 -8.8196,0 -8.2756,1.85996 -8.2756,-28.28318 0,-31.78445 0.8632,-34.79469 9.9768,-34.79469 6.2961,0 13.4522,10.51619 9.4284,13.85573 -4.514,3.74626 -0.7391,8.61036 6.6822,8.61036 5.2674,0 8.3147,-5.54734 4.6969,-8.55008 -0.6529,-0.54172 -1.4514,-2.97876 -1.7747,-5.41564 -2.4937,-18.79854 -25.8051,-25.48179 -35.2969,-10.11941 -3.2583,5.27311 -4.3302,18.86723 -3.5241,44.6889 0.6623,21.22018 1.1345,19.97464 -7.5803,19.99478 -6.6874,0.0154 -8.7492,-1.33154 -5.9353,-3.87789 2.3533,-2.12979 2.1659,-3.90095 -0.6512,-6.14929 -2.3762,-1.89657 -2.3762,-1.89657 0.046,-3.80451 1.5708,-1.23679 2.3308,-2.55677 2.1603,-3.75241 -0.401,-2.81024 -3.3553,-2.28272 -5.563,0.99325 -1.9124,2.83773 -1.9124,2.83773 -3.4617,0.21489 -1.5924,-2.6958 -3.9491,-4.00863 -5.4879,-3.05741 -1.5839,0.97881 -0.9099,2.8434 1.8742,5.18613 2.7459,2.31069 2.7459,2.31069 0,4.45984 -3.1626,2.47516 -3.4764,4.16446 -1.0179,5.48022 2.2991,1.23056 2.1927,3.32136 -0.2156,4.24262 -1.0692,0.40895 -2.6848,1.56583 -3.5901,2.57086 -1.6077,1.78493 -2.2612,1.82732 -28.1689,1.82732 -31.1742,0 -26.0335,-1.9419 -46.5196,17.57324 -29.828,28.41407 -29.57,28.00395 -29.6108,47.11113 -0.033,12.23815 -0.1731,11.85264 4.8144,12.60063 3.8759,0.58124 3.8759,0.58124 3.3697,54.75278 -0.6026,64.45682 0.5611,114.60431 2.709,116.75223 2.1753,2.17523 176.2871,3.58234 234.448,1.89473 z m -206.2265,-9.65107 c -10.932,-0.39458 -17.9417,-0.99826 -18.5403,-1.59679 -2.0604,-2.06067 -3.2342,-146.35442 -1.2234,-150.43658 0.8331,-1.69124 113.7967,-2.23585 114.88,-0.55385 0.9118,1.41609 0.789,149.36435 -0.1242,150.808 -1.609,2.54123 -49.1864,3.43237 -94.9908,1.77922 z m 87.4367,-8.4858 c 1.5581,-1.29375 2.2469,-134.00706 0.7083,-136.43101 -0.9255,-1.45814 -99.2928,-1.63581 -100.7422,-0.18194 -1.4255,1.43009 -1.114,134.28909 0.32,136.01563 1.955,2.35557 96.9128,2.92438 99.7149,0.59732 z M 1874.88,-327.95339 c -2.2756,-2.51436 -0.8703,-6.34759 2.468,-6.7329 3.0842,-0.35597 4.9003,1.16353 4.9003,4.0998 0,4.39626 -4.3621,5.95505 -7.3683,2.6331 z m 32.8531,130.36077 c -0.2416,-0.635 -0.3403,-34.98332 -0.2188,-76.32959 0.2221,-75.17499 0.2221,-75.17499 56.8203,-75.01233 56.5973,0.16267 56.5973,0.16267 56.5362,76.03907 -0.062,75.87643 -0.062,75.87643 -56.3798,76.16695 -46.3984,0.23939 -56.3964,0.0872 -56.7592,-0.8641 z m 99.8105,-6.77111 c 7.5392,0 7.5392,0 7.7501,-23.11414 0.1144,-12.71278 0.1601,-24.08624 0.1013,-25.27434 -0.062,-1.18814 -0.3233,-21.59341 -0.579,-45.34507 -0.258,-23.75167 -0.568,-43.28469 -0.6901,-43.40672 -0.3968,-0.39679 -99.2632,-0.31506 -99.6606,0.0823 -0.6731,0.6732 -0.2058,135.7133 0.4706,136.39116 0.63,0.62978 73.6693,1.46873 81.2767,0.9336 2.0858,-0.14664 7.1854,-0.26682 11.332,-0.26682 z m -84.4435,-122.91544 c -2.8618,-3.69842 -0.9089,-7.82371 3.4996,-7.39323 3.632,0.35462 5.161,4.07094 2.7646,6.71901 -1.7802,1.96711 -4.9961,2.31324 -6.2642,0.67422 z m -127.908,-70.33331 c -2.4323,-1.01176 2.1623,-8.05192 14.1564,-21.69125 7.1292,-8.10741 7.317,-7.88847 7.0355,8.20876 -0.2384,13.60927 -0.2384,13.60927 -10.175,13.77051 -5.4653,0.0887 -10.4228,-0.041 -11.0169,-0.28801 z m 193.5542,0.0448 c -1.5751,-0.72059 -1.552,-27.1366 0.033,-27.1366 2.3328,0 22.6916,24.93858 21.4071,26.22294 -0.8808,0.88075 -19.7451,1.68499 -21.4309,0.91366 z m -122.0514,-31.45701 c 0,-0.47524 0.9719,-0.86408 2.16,-0.86408 1.1881,0 2.1603,0.38884 2.1603,0.86408 0,0.47525 -0.9722,0.86408 -2.1603,0.86408 -1.1881,0 -2.16,-0.38883 -2.16,-0.86408 z m 24.266,0.51032 c 0.7975,-0.78351 8.6057,-1.14981 9.0538,-0.42473 0.2645,0.42817 -1.7453,0.77849 -4.4663,0.77849 -2.7211,0 -4.7854,-0.15921 -4.5875,-0.35376 z m 16.7183,-0.42128 c 1.5611,-0.61146 5.676,-0.28978 5.676,0.44374 0,0.18223 -1.6525,0.30398 -3.6724,0.27057 -2.5979,-0.043 -3.1842,-0.25192 -2.0036,-0.71431 z m 12.3726,0.16525 c 1.0692,-0.20598 2.819,-0.20598 3.8883,0 1.0692,0.20594 0.1959,0.37447 -1.9442,0.37447 -2.1384,0 -3.0133,-0.16852 -1.9441,-0.37447 z m 14.4734,-0.25428 c -0.2939,-0.47524 0.2678,-0.86408 1.245,-0.86408 0.9784,0 1.7792,0.38884 1.7792,0.86408 0,0.47525 -0.5604,0.86408 -1.2453,0.86408 -0.6848,0 -1.4853,-0.38883 -1.7789,-0.86408 z"
           id="path3694"
           inkscape:connector-curvature="0" />
        <path
           sodipodi:nodetypes="scsccsccccccccsscccccccccccscccccccccccsscssccscsccccsccscccscsccccccccccccccccccsccc"
           style="fill:#c7d8f0;fill-opacity:1;stroke-width:4.72120571"
           d="m 2012.2278,-187.65356 c 21.2507,-0.71172 18.7644,6.36282 19.0818,-54.29765 0.6741,-128.88129 15.2938,-115.78679 -129.274,-115.78679 -128.4028,0 -128.4028,0 -128.9615,15.98548 -1.3256,37.90289 -0.1992,151.00198 1.5225,152.72604 1.5264,1.52925 198.9127,2.66964 237.6312,1.37292 z m -207.1432,-6.29885 c -15.0446,-0.43837 -22.6226,-0.97772 -23.3032,-1.65848 -2.3426,-2.3424 -3.2355,-149.48594 -0.9314,-153.48631 1.7642,-3.06302 117.0511,-2.64058 117.9064,0.43204 0.9275,3.33194 0.9,149.04049 -0.033,151.48266 -1.3119,3.45086 -40.1244,4.78965 -93.6433,3.23009 z m 81.86,-11.254 c 2.2162,-0.84271 2.2162,-0.84271 2.2162,-67.83031 0,-66.98763 0,-66.98763 -45.148,-67.10368 -45.9281,-0.11803 -52.5904,-0.0297 -53.3572,0.70743 -0.7342,0.70589 -0.9069,89.32362 -0.2188,112.1711 0.6509,21.60203 0.6509,21.60203 7.9957,22.0891 13.2896,0.88134 86.1783,0.85365 88.5121,-0.0336 z M 1873.67,-326.74764 c -2.903,-3.6905 -2.2407,-7.36832 1.6927,-9.40239 5.0901,-2.63224 10.6658,2.39317 8.6214,7.77055 -1.6489,4.33689 -7.4627,5.25672 -10.3141,1.63184 z m 32.5262,131.35445 c -1.193,-1.193 -0.7354,-154.7731 0.4621,-155.20177 1.3397,-0.47937 115.5861,-0.0713 116.072,0.41459 1.0121,1.01219 0.5676,153.79702 -0.4493,154.42552 -1.3596,0.84023 -115.2513,1.19506 -116.0848,0.36166 z m 106.2824,-11.05541 c 0.2743,-0.23644 0.6408,-52.48786 0.3815,-54.51241 -0.1209,-0.95048 -0.2091,-19.00479 -0.1927,-40.12068 0.033,-21.1159 -0.078,-38.50009 -0.209,-38.63154 -2.3955,-2.39552 -96.8116,-0.035 -96.8001,2.42011 0,1.58691 0.075,31.75225 0.1502,67.03408 0.1372,64.14878 0.1372,64.14878 37.5086,64.37399 32.5412,0.19595 58.5642,-0.0519 59.1599,-0.56355 z m -91.0029,-120.19568 c -3.0957,-4.725 -0.7162,-9.92375 4.5424,-9.92375 3.6179,0 6.3468,2.58621 6.3468,6.0149 0,5.5686 -7.9353,8.41709 -10.8892,3.90885 z m 69.2147,-59.18439 c 45.2028,-0.95867 47.9565,-1.14079 47.9565,-3.17168 0,-2.01704 -38.7365,-41.07952 -44.4471,-44.82139 -5.3539,-3.50797 -53.6449,-1.9149 -53.3474,1.75987 0.4703,5.80765 -0.3354,5.62947 25.4548,5.62947 26.634,0 23.2601,-1.52088 38.3397,17.28161 11.383,14.193 24.9965,12.52916 -102.513,12.52916 -104.8415,0 -109.3065,-0.0638 -109.5959,-1.56626 -0.3233,-1.68419 8.6387,-13.92971 16.7843,-22.93097 4.8086,-5.31354 4.8086,-5.31354 28.2823,-5.32677 27.1615,-0.0154 25.5439,0.45434 26.7412,-7.76349 0.2286,-1.57229 -20.4731,-2.21411 -40.6934,-1.26159 -14.414,0.679 -11.3778,-1.12836 -33.7212,20.07368 -14.7373,13.98407 -25.4766,25.71366 -24.9622,27.26346 1.127,3.39594 118.004,4.58941 225.7214,2.3049 z M 1881.38,-434.63619 c 0.6531,-0.78679 0.8425,-2.22135 0.4856,-3.67235 -0.3233,-1.30965 -0.806,-3.54769 -1.0745,-4.97343 -0.6251,-3.3189 -1.7893,-4.75244 -3.8602,-4.75244 -0.9072,0 -1.7769,0.48604 -1.9324,1.0801 -0.1567,0.59406 -0.693,2.44103 -1.1939,4.10438 -0.501,1.66336 -1.1522,3.85819 -1.4474,4.87742 -1.1059,3.81898 6.3379,6.5714 9.0228,3.33632 z m 24.7578,-0.94204 c 1.2145,-1.85375 1.2942,-2.7 0.4696,-4.98078 -1.7923,-4.95631 -1.6956,-54.74458 0.1143,-58.49411 3.2887,-6.81612 11.592,-8.16867 16.9927,-2.76799 3.919,3.91893 5.3958,9.70194 3.1198,12.21683 -3.5914,3.9682 -1.8932,6.24396 4.4513,5.96603 6.32,-0.27684 8.145,-2.31407 5.131,-5.72726 -0.6999,-0.79249 -1.5418,-3.45766 -1.871,-5.92261 -2.8955,-21.67317 -31.1327,-24.51134 -35.809,-3.59924 -1.7221,7.70063 -1.359,63.09474 0.4222,64.39708 2.4945,1.824 5.3648,1.37659 6.9797,-1.08795 z m 24.8986,0.84602 c 0.8634,-0.86342 1.1845,-2.08686 0.8507,-3.2403 -0.2939,-1.01923 -0.9464,-3.21406 -1.4477,-4.87742 -0.501,-1.66335 -1.0382,-3.51032 -1.1937,-4.10438 -0.8282,-3.16248 -5.5215,-0.30473 -5.5215,3.36212 0,1.30263 -0.389,2.60875 -0.8641,2.90246 -1.4514,0.89688 -0.9902,5.45718 0.6479,6.41139 2.2802,1.32805 5.9689,1.10567 7.5284,-0.45387 z"
           id="path3696"
           inkscape:connector-curvature="0" />
        <path
           sodipodi:nodetypes="ccsscccccccccccccc"
           style="fill:#383838;stroke-width:4.72120571"
           d="m 1808.1698,-163.84286 c -30.2868,-0.62126 -33.3593,-0.82129 -36.9393,-2.40495 -3.2426,-1.43434 -3.9049,-1.5107 -3.9049,-0.45006 0,1.36586 -5.449,1.09424 -12.2501,-0.61064 -11.399,-2.85749 -11.3049,-19.06841 0.2417,-41.92374 3.9085,-7.73596 12.8144,-21.86307 13.8056,-21.89951 0.2743,-0.01 0.8638,9.73706 1.306,21.66042 0.7044,18.99663 0.9892,21.81448 2.3024,22.77466 4.6622,3.40902 254.086,3.43218 258.747,0.0229 1.2726,-0.93072 1.5506,-3.26297 1.9496,-16.37637 0.8207,-26.95327 7.6071,-24.71161 20.5636,6.79228 5.9529,14.47504 4.2756,24.98685 -4.5777,28.68601 -5.8978,2.46422 -116.1566,5.96279 -117.5371,3.72953 -0.3102,-0.50339 0.5454,-2.14737 1.9034,-3.65331 2.4686,-2.73806 2.4686,-2.73806 -0.5539,-0.0333 -1.6623,1.48752 -3.8716,3.14005 -4.9098,3.67235 -2.1718,1.11364 -66.1469,1.12043 -120.1474,0.0131 z"
           id="path3698"
           inkscape:connector-curvature="0" />
      </g>
      <rect
         inkscape:export-ydpi="96"
         inkscape:export-xdpi="96"
         transform="matrix(0.252528,0,0,0.252528,-534.44632,1836.8663)"
         clip-path="url(#clipPath2328-3)"
         rx="15.978261"
         style="opacity:1;fill:#3d76ca;fill-opacity:1;fill-rule:nonzero;stroke:none;stroke-width:209.54769897;stroke-linecap:round;stroke-miterlimit:4;stroke-dasharray:none;stroke-dashoffset:0;stroke-opacity:0.99607843;paint-order:normal"
         id="rect3702"
         width="95.549629"
         height="148.76715"
         x="-1030.1995"
         y="456.05017"
         ry="15.978261" />
      <rect
         inkscape:export-ydpi="96"
         inkscape:export-xdpi="96"
         clip-path="url(#clipPath2324-7)"
         transform="matrix(0.21869567,-0.126264,0.24392333,0.06535906,-534.44632,1836.8663)"
         rx="15.978223"
         ry="14.291356"
         y="-122.9897"
         x="-1167.9259"
         height="25.802366"
         width="263.14944"
         id="rect3704"
         style="opacity:1;fill:#c7d8f0;fill-opacity:1;fill-rule:nonzero;stroke:none;stroke-width:249.19561768;stroke-linecap:round;stroke-miterlimit:4;stroke-dasharray:none;stroke-dashoffset:0;stroke-opacity:0.99607843;paint-order:normal" />
      <rect
         inkscape:export-ydpi="96"
         inkscape:export-xdpi="96"
         clip-path="url(#clipPath2320-3)"
         transform="matrix(0.21869567,-0.126264,0.24392333,0.06535906,-534.44632,1836.8663)"
         ry="14.291356"
         rx="15.978223"
         y="-87.263382"
         x="-1150.7334"
         height="15.87838"
         width="221.04555"
         id="rect3706"
         style="opacity:1;fill:#c7d8f0;fill-opacity:1;fill-rule:nonzero;stroke:none;stroke-width:249.19561768;stroke-linecap:round;stroke-miterlimit:4;stroke-dasharray:none;stroke-dashoffset:0;stroke-opacity:0.99607843;paint-order:normal" />
      <rect
         inkscape:export-ydpi="96"
         inkscape:export-xdpi="96"
         clip-path="url(#clipPath2316-6)"
         transform="matrix(0.21869567,-0.126264,0.24392333,0.06535906,-534.44632,1836.8663)"
         ry="14.291356"
         rx="15.978223"
         y="-146.80727"
         x="-1159.5051"
         height="10.916386"
         width="244.2027"
         id="rect3708"
         style="opacity:1;fill:#c7d8f0;fill-opacity:1;fill-rule:nonzero;stroke:none;stroke-width:249.19561768;stroke-linecap:round;stroke-miterlimit:4;stroke-dasharray:none;stroke-dashoffset:0;stroke-opacity:0.99607843;paint-order:normal" />
      <rect
         inkscape:export-ydpi="96"
         inkscape:export-xdpi="96"
         clip-path="url(#clipPath2312-9)"
         transform="matrix(0.21869567,-0.126264,0.24392333,0.06535906,-534.44632,1836.8663)"
         style="opacity:1;fill:#c7d8f0;fill-opacity:1;fill-rule:nonzero;stroke:none;stroke-width:249.19561768;stroke-linecap:round;stroke-miterlimit:4;stroke-dasharray:none;stroke-dashoffset:0;stroke-opacity:0.99607843;paint-order:normal"
         id="rect3710"
         width="244.2027"
         height="10.916386"
         x="-1208.3223"
         y="-33.148003"
         rx="15.978223"
         ry="14.291356" />
    </g>
  </g>
</svg>
